<?xml version="1.0" standalone="no"?>
<!DOCTYPE svg PUBLIC "-//W3C//DTD SVG 1.1//EN" "http://www.w3.org/Graphics/SVG/1.1/DTD/svg11.dtd" >
<svg xmlns="http://www.w3.org/2000/svg">
<metadata>Generated by IcoMoon</metadata>
<defs>
<font id="icomoon" horiz-adv-x="1024">
<font-face units-per-em="1024" ascent="960" descent="-64" />
<missing-glyph horiz-adv-x="1024" />
<glyph unicode="&#x20;" horiz-adv-x="512" d="" />
<glyph unicode="&#xe900;" glyph-name="power_settings_new-filled" d="M482.261 436.151v341.168c0 8.151 2.884 15.145 8.657 20.984 5.769 5.839 12.8 8.759 21.086 8.759s15.351-2.92 21.188-8.759c5.841-5.839 8.759-12.834 8.759-20.984v-341.168c0-8.29-2.918-15.351-8.759-21.188-5.837-5.841-12.902-8.759-21.188-8.759s-15.317 2.918-21.086 8.759c-5.773 5.837-8.657 12.898-8.657 21.188zM512.026 93.099c-48.751 0-94.65 9.335-137.695 28.011-43.045 18.679-80.674 44.122-112.887 76.339-32.214 32.213-57.659 69.841-76.336 112.887-18.676 43.042-28.014 89.003-28.014 137.873 0 46.908 8.916 91.415 26.749 133.521s42.988 79.898 75.467 113.376c6.331 6.918 13.897 10.569 22.698 10.952s16.503-2.735 23.106-9.354c6.045-6.044 8.588-13.175 7.631-21.394s-4.459-15.569-10.502-22.050c-27.487-26.804-48.602-57.792-63.344-92.964s-22.113-72.556-22.113-112.142c0-81.792 28.82-151.471 86.46-209.028s127.271-86.336 208.888-86.336c82.185 0 151.915 28.804 209.186 86.421 57.271 57.613 85.905 127.211 85.905 208.798 0 39.684-7.232 77.129-21.705 112.333s-35.23 66.039-62.272 92.508c-6.4 6.618-10.236 14.071-11.507 22.359-1.276 8.287 1.114 15.453 7.155 21.496 6.622 6.619 14.468 9.682 23.548 9.19 9.084-0.493 16.823-4.158 23.223-10.995 32.546-33.34 57.557-71.063 75.034-113.169s26.214-86.618 26.214-133.542c0-48.887-9.353-94.861-28.066-137.916-18.714-43.059-44.066-80.7-76.062-112.922-31.996-32.226-69.495-57.655-112.499-76.297-43.008-18.637-89.092-27.955-138.261-27.955z" />
<glyph unicode="&#xe901;" glyph-name="power_settings_new-outlined" d="M482.261 436.151v341.168c0 8.151 2.884 15.145 8.657 20.984 5.769 5.839 12.8 8.759 21.086 8.759s15.351-2.92 21.188-8.759c5.841-5.839 8.759-12.834 8.759-20.984v-341.168c0-8.29-2.918-15.351-8.759-21.188-5.837-5.841-12.902-8.759-21.188-8.759s-15.317 2.918-21.086 8.759c-5.773 5.837-8.657 12.898-8.657 21.188zM512.026 93.099c-48.751 0-94.65 9.335-137.695 28.011-43.045 18.679-80.674 44.122-112.887 76.339-32.214 32.213-57.659 69.841-76.336 112.887-18.676 43.042-28.014 89.003-28.014 137.873 0 46.908 8.916 91.415 26.749 133.521s42.988 79.898 75.467 113.376c6.331 6.918 13.897 10.569 22.698 10.952s16.503-2.735 23.106-9.354c6.045-6.044 8.588-13.175 7.631-21.394s-4.459-15.569-10.502-22.050c-27.487-26.804-48.602-57.792-63.344-92.964s-22.113-72.556-22.113-112.142c0-81.792 28.82-151.471 86.46-209.028s127.271-86.336 208.888-86.336c82.185 0 151.915 28.804 209.186 86.421 57.271 57.613 85.905 127.211 85.905 208.798 0 39.684-7.232 77.129-21.705 112.333s-35.23 66.039-62.272 92.508c-6.4 6.618-10.236 14.071-11.507 22.359-1.276 8.287 1.114 15.453 7.155 21.496 6.622 6.619 14.468 9.682 23.548 9.19 9.084-0.493 16.823-4.158 23.223-10.995 32.546-33.34 57.557-71.063 75.034-113.169s26.214-86.618 26.214-133.542c0-48.887-9.353-94.861-28.066-137.916-18.714-43.059-44.066-80.7-76.062-112.922-31.996-32.226-69.495-57.655-112.499-76.297-43.008-18.637-89.092-27.955-138.261-27.955z" />
<glyph unicode="&#xe902;" glyph-name="shield-filled" d="M512 23.522c-4.727 0-9.365 0.38-13.918 1.139-4.548 0.755-8.956 1.894-13.214 3.413-95.982 34.133-172.344 94.652-229.086 181.564-56.744 86.908-85.115 180.685-85.115 281.335v204.975c0 17.213 4.989 32.748 14.966 46.605s22.814 23.909 38.51 30.151l259.062 96.711c9.745 3.501 19.345 5.251 28.796 5.251s19.051-1.75 28.796-5.251l259.063-96.711c15.693-6.243 28.531-16.293 38.507-30.151 9.98-13.857 14.967-29.392 14.967-46.605v-204.975c0-100.651-28.373-194.428-85.116-281.335-56.742-86.912-133.103-147.43-229.086-181.564-4.258-1.519-8.666-2.658-13.214-3.413-4.553-0.759-9.19-1.139-13.918-1.139z" />
<glyph unicode="&#xe903;" glyph-name="shield-outlined" d="M512 23.522c-4.727 0-9.365 0.38-13.918 1.139-4.548 0.755-8.956 1.894-13.222 3.413-95.976 34.133-172.335 94.652-229.078 181.564-56.744 86.908-85.115 180.685-85.115 281.335v204.975c0 17.288 4.971 32.847 14.912 46.676s22.796 23.857 38.564 30.080l259.062 96.711c9.745 3.501 19.345 5.251 28.796 5.251s19.051-1.75 28.796-5.251l259.063-96.711c15.765-6.223 28.621-16.25 38.562-30.080s14.912-29.389 14.912-46.676v-204.975c0-100.651-28.373-194.428-85.116-281.335-56.742-86.912-133.103-147.43-229.077-181.564-4.267-1.519-8.674-2.658-13.222-3.413-4.553-0.759-9.19-1.139-13.918-1.139zM512 90.475c78.886 25.033 144.119 75.093 195.699 150.187s77.367 158.532 77.367 250.313v205.413c0 2.917-0.802 5.543-2.406 7.877s-3.866 4.086-6.784 5.252l-259.063 96.711c-1.459 0.583-3.063 0.875-4.813 0.875s-3.354-0.292-4.813-0.875l-259.064-96.711c-2.918-1.167-5.179-2.918-6.783-5.252s-2.408-4.96-2.408-7.877v-205.413c0-91.78 25.789-175.219 77.369-250.313s116.812-125.154 195.698-150.187z" />
<glyph unicode="&#xe904;" glyph-name="shields-filled" d="M392.286 49.225c4.267-0.708 8.615-1.067 13.046-1.067s8.78 0.358 13.047 1.067c4.267 0.713 8.395 1.779 12.388 3.2 89.984 32 161.574 88.738 214.767 170.214 53.197 81.476 79.799 169.395 79.799 263.753v192.165c0 16.137-4.681 30.7-14.033 43.692s-21.389 22.414-36.1 28.267l-242.871 90.667c-9.137 3.282-18.135 4.923-26.996 4.923s-17.859-1.641-26.994-4.923l-242.871-90.667c-14.714-5.853-26.749-15.275-36.102-28.267s-14.031-27.555-14.031-43.692v-192.165c0-94.357 26.598-182.276 79.795-263.753s124.785-138.214 214.768-170.214c3.993-1.421 8.123-2.487 12.39-3.2zM810.014 485.043c0-179.14-107.857-347.529-260.681-414.345 14.11-6.793 28.745-12.885 43.9-18.274 3.994-1.421 8.124-2.487 12.39-3.2 4.267-0.708 8.614-1.067 13.047-1.067 4.429 0 8.777 0.358 13.043 1.067 4.267 0.713 8.397 1.779 12.39 3.2 89.984 32 161.574 88.738 214.767 170.214 53.197 81.476 79.795 169.395 79.795 263.753v192.165c0 16.137-4.676 30.7-14.029 43.692s-21.389 22.414-36.105 28.267l-242.871 90.667c-9.135 3.282-18.133 4.923-26.991 4.923-8.862 0-17.86-1.641-26.995-4.923l-42.739-15.954 261.077-97.904v-242.28z" />
<glyph unicode="&#xe905;" glyph-name="shields-outlined" d="M392.286 49.225c4.267-0.708 8.615-1.067 13.046-1.067s8.78 0.358 13.047 1.067c4.267 0.713 8.399 1.779 12.397 3.2 89.98 32 161.566 88.738 214.758 170.214 53.197 81.476 79.799 169.395 79.799 263.753v192.165c0 16.207-4.663 30.793-13.982 43.759s-21.372 22.365-36.151 28.199l-242.871 90.667c-9.137 3.282-18.135 4.923-26.996 4.923s-17.859-1.641-26.994-4.923l-242.871-90.667c-14.783-5.834-26.834-15.234-36.154-28.199s-13.98-27.552-13.98-43.759v-192.165c0-94.357 26.598-182.276 79.795-263.753s124.783-138.214 214.76-170.214c3.998-1.421 8.131-2.487 12.398-3.2zM588.8 251.725c-48.358-70.4-109.513-117.333-183.468-140.8-73.955 23.467-135.111 70.4-183.467 140.8s-72.533 148.625-72.533 234.667v192.576c0 2.735 0.753 5.196 2.257 7.385s3.624 3.83 6.359 4.924l242.871 90.667c1.367 0.547 2.872 0.82 4.513 0.82s3.146-0.273 4.513-0.82l242.869-90.667c2.735-1.094 4.855-2.735 6.362-4.924 1.502-2.188 2.257-4.65 2.257-7.385v-192.576c0-86.042-24.179-164.267-72.533-234.667zM810.014 485.043c0-179.14-107.857-347.529-260.681-414.345 14.11-6.793 28.745-12.885 43.9-18.274 3.994-1.421 8.124-2.487 12.39-3.2 4.267-0.708 8.614-1.067 13.047-1.067 4.429 0 8.777 0.358 13.043 1.067 4.267 0.713 8.397 1.779 12.39 3.2 89.984 32 161.574 88.738 214.767 170.214 53.197 81.476 79.795 169.395 79.795 263.753v192.165c0 16.137-4.676 30.7-14.029 43.692s-21.389 22.414-36.105 28.267l-242.871 90.667c-9.135 3.282-18.133 4.923-26.991 4.923-8.862 0-17.86-1.641-26.995-4.923l-42.739-15.954 261.077-97.904v-242.28z" />
<glyph unicode="&#xe906;" glyph-name="account_circle-filled" d="M256.985 222.195c36.267 26.914 75.774 48.162 118.522 63.753s88.245 23.386 136.493 23.386c48.243 0 93.743-7.795 136.491-23.386s82.257-36.838 118.524-63.753c26.53 29.154 47.548 62.908 63.057 101.252 15.505 38.345 23.262 79.863 23.262 124.553 0 94.579-33.246 175.112-99.733 241.601-66.492 66.489-147.025 99.733-241.6 99.733-94.579 0-175.112-33.244-241.601-99.733s-99.733-147.022-99.733-241.601c0-44.689 7.754-86.208 23.262-124.553s36.527-72.098 63.057-101.252zM512 416c-38.946 0-71.795 13.376-98.544 40.124s-40.123 59.597-40.123 98.544c0 38.947 13.374 71.795 40.123 98.543s59.598 40.123 98.544 40.123c38.946 0 71.795-13.374 98.543-40.123s40.124-59.596 40.124-98.543c0-38.947-13.376-71.796-40.124-98.544s-59.597-40.124-98.543-40.124zM512 42.667c-56.29 0-109.088 10.586-158.4 31.757-49.313 21.167-92.212 49.997-128.698 86.481s-65.312 79.386-86.481 128.695c-21.17 49.314-31.755 102.114-31.755 158.4 0 56.29 10.585 109.088 31.755 158.4s49.996 92.212 86.481 128.698c36.486 36.485 79.385 65.312 128.698 86.481s102.11 31.755 158.4 31.755c56.286 0 109.086-10.585 158.4-31.755 49.31-21.169 92.211-49.996 128.695-86.481s65.314-79.385 86.481-128.698c21.171-49.312 31.757-102.11 31.757-158.4 0-56.286-10.586-109.086-31.757-158.4-21.167-49.31-49.997-92.211-86.481-128.695s-79.386-65.314-128.695-86.481c-49.314-21.171-102.114-31.757-158.4-31.757z" />
<glyph unicode="&#xe907;" glyph-name="account_circle-outlined" d="M256.985 222.195c36.267 26.914 75.774 48.162 118.522 63.753s88.245 23.386 136.493 23.386c48.243 0 93.743-7.795 136.491-23.386s82.257-36.838 118.524-63.753c26.53 29.154 47.548 62.908 63.057 101.252 15.505 38.345 23.262 79.863 23.262 124.553 0 94.579-33.246 175.112-99.733 241.601-66.492 66.489-147.025 99.733-241.6 99.733-94.579 0-175.112-33.244-241.601-99.733s-99.733-147.022-99.733-241.601c0-44.689 7.754-86.208 23.262-124.553s36.527-72.098 63.057-101.252zM512.013 416c-38.955 0-71.808 13.372-98.557 40.111-26.749 26.743-40.123 59.588-40.123 98.544s13.37 71.808 40.11 98.556c26.74 26.749 59.589 40.123 98.544 40.123s71.808-13.37 98.556-40.11c26.748-26.74 40.124-59.588 40.124-98.543s-13.372-71.809-40.111-98.557c-26.743-26.748-59.588-40.124-98.543-40.124zM512 42.667c-56.29 0-109.088 10.586-158.4 31.757-49.313 21.167-92.212 49.997-128.698 86.481s-65.312 79.386-86.481 128.695c-21.17 49.314-31.755 102.114-31.755 158.4 0 56.29 10.585 109.088 31.755 158.4s49.996 92.212 86.481 128.698c36.486 36.485 79.385 65.312 128.698 86.481s102.11 31.755 158.4 31.755c56.286 0 109.086-10.585 158.4-31.755 49.31-21.169 92.211-49.996 128.695-86.481s65.314-79.385 86.481-128.698c21.171-49.312 31.757-102.11 31.757-158.4 0-56.286-10.586-109.086-31.757-158.4-21.167-49.31-49.997-92.211-86.481-128.695s-79.386-65.314-128.695-86.481c-49.314-21.171-102.114-31.757-158.4-31.757zM512 106.667c38.507 0 75.635 6.195 111.386 18.586 35.746 12.39 67.486 29.717 95.219 51.981-27.733 21.44-59.063 38.153-93.99 50.133s-72.465 17.967-112.614 17.967c-40.154 0-77.76-5.918-112.822-17.762s-66.325-28.621-93.785-50.338c27.733-22.263 59.474-39.59 95.221-51.981 35.746-12.39 72.875-18.586 111.386-18.586zM512 480c21.222 0 38.972 7.138 53.252 21.414 14.276 14.281 21.414 32.029 21.414 53.253s-7.138 38.975-21.414 53.252c-14.281 14.277-32.030 21.416-53.252 21.416-21.227 0-38.976-7.139-53.252-21.416s-21.414-32.028-21.414-53.252c0-21.224 7.138-38.973 21.414-53.253 14.276-14.276 32.026-21.414 53.252-21.414z" />
<glyph unicode="&#xe908;" glyph-name="mic-filled" d="M512.004 384c-29.811 0-55.044 10.325-75.691 30.976-20.651 20.651-30.976 45.879-30.976 75.691v256.001c0 29.811 10.325 55.042 30.976 75.692 20.646 20.649 45.879 30.974 75.691 30.974s55.040-10.324 75.691-30.974c20.651-20.65 30.976-45.881 30.976-75.692v-256.001c0-29.811-10.325-55.040-30.976-75.691s-45.879-30.976-75.691-30.976zM480.004 106.667v108.638c-63.507 7.33-117.935 33.421-163.281 78.276s-71.904 99.529-79.671 164.019c-1.149 9.084 1.231 16.862 7.138 23.343 5.908 6.485 13.402 9.724 22.482 9.724s16.684-3.132 22.81-9.395c6.127-6.263 10.202-13.935 12.225-23.014 7.767-52.237 31.658-95.454 71.671-129.643 40.013-34.185 86.223-51.281 138.627-51.281 53.116 0 99.503 17.271 139.157 51.814 39.659 34.547 63.373 77.581 71.138 129.109 2.027 9.079 6.101 16.751 12.228 23.014 6.123 6.263 13.726 9.395 22.81 9.395 9.079 0 16.572-3.238 22.481-9.724 5.905-6.481 8.286-14.259 7.138-23.343-7.77-63.070-34.146-117.316-79.138-162.748-44.992-45.427-99.597-71.945-163.814-79.548v-108.638c0-9.079-3.063-16.683-9.19-22.81s-13.73-9.19-22.81-9.19c-9.079 0-16.683 3.063-22.81 9.19s-9.19 13.73-9.19 22.81z" />
<glyph unicode="&#xe909;" glyph-name="mic-outlined" d="M512.004 384c-29.811 0-55.044 10.325-75.691 30.976-20.651 20.651-30.976 45.879-30.976 75.691v256.001c0 29.811 10.325 55.042 30.976 75.692 20.646 20.649 45.879 30.974 75.691 30.974s55.040-10.324 75.691-30.974c20.651-20.65 30.976-45.881 30.976-75.692v-256.001c0-29.811-10.325-55.040-30.976-75.691s-45.879-30.976-75.691-30.976zM480.004 106.667v108.638c-63.507 7.33-117.935 33.421-163.281 78.276s-71.904 99.529-79.671 164.019c-1.149 9.084 1.231 16.862 7.138 23.343 5.908 6.485 13.402 9.724 22.482 9.724s16.684-3.132 22.81-9.395c6.127-6.263 10.202-13.935 12.225-23.014 7.767-52.237 31.658-95.454 71.671-129.643 40.014-34.185 86.223-51.281 138.627-51.281 53.116 0 99.503 17.271 139.157 51.814 39.659 34.547 63.373 77.581 71.138 129.109 2.027 9.079 6.101 16.751 12.228 23.014 6.123 6.263 13.726 9.395 22.81 9.395 9.079 0 16.572-3.238 22.481-9.724 5.905-6.481 8.286-14.259 7.138-23.343-7.77-63.070-34.146-117.316-79.138-162.748-44.992-45.427-99.597-71.945-163.814-79.548v-108.638c0-9.079-3.063-16.683-9.19-22.81s-13.73-9.19-22.81-9.19c-9.079 0-16.683 3.063-22.81 9.19s-9.19 13.73-9.19 22.81zM512.004 448c12.087 0 22.221 4.092 30.4 12.267 8.179 8.179 12.267 18.313 12.267 30.4v256.001c0 12.089-4.087 22.223-12.267 30.4s-18.313 12.267-30.4 12.267c-12.087 0-22.221-4.089-30.4-12.267s-12.267-18.311-12.267-30.4v-256.001c0-12.087 4.087-22.221 12.267-30.4 8.179-8.175 18.313-12.267 30.4-12.267z" />
<glyph unicode="&#xe90a;" glyph-name="print-filled" d="M354.465 85.342c-21.21 0-39.367 7.552-54.471 22.656s-22.657 33.259-22.657 54.473v93.538h-81.23c-21.21 0-39.368 7.552-54.472 22.656s-22.656 33.259-22.656 54.473v165.743c0 30.221 10.325 55.553 30.974 75.997s45.879 30.666 75.691 30.666h572.718c30.221 0 55.552-10.222 75.998-30.666 20.442-20.444 30.665-45.776 30.665-75.997v-165.743c0-21.214-7.552-39.369-22.656-54.473s-33.259-22.656-54.473-22.656h-81.229v-93.538c0-21.214-7.552-39.369-22.656-54.473s-33.263-22.656-54.473-22.656h-315.073zM746.667 643.287h-469.33v77.2c0 21.23 7.552 39.38 22.657 54.45s33.261 22.605 54.471 22.605h315.073c21.21 0 39.369-7.552 54.473-22.656s22.656-33.262 22.656-54.471v-77.128zM759.795 434.88c12.092 0 22.225 4.087 30.4 12.267 8.179 8.175 12.267 18.308 12.267 30.4 0 12.087-4.087 22.221-12.267 30.4-8.175 8.175-18.308 12.267-30.4 12.267-12.087 0-22.221-4.092-30.4-12.267-8.175-8.179-12.267-18.313-12.267-30.4 0-12.092 4.092-22.225 12.267-30.4 8.179-8.179 18.313-12.267 30.4-12.267zM354.465 149.338h315.073c3.831 0 6.976 1.233 9.438 3.695s3.691 5.606 3.691 9.438v155.895c0 3.827-1.229 6.972-3.691 9.434s-5.606 3.695-9.438 3.695h-315.073c-3.829 0-6.975-1.233-9.437-3.695s-3.693-5.606-3.693-9.434v-155.895c0-3.831 1.231-6.976 3.693-9.438s5.607-3.695 9.437-3.695z" />
<glyph unicode="&#xe90b;" glyph-name="remove-filled" d="M266.667 416.004c-9.067 0-16.666 3.068-22.8 9.203s-9.2 13.739-9.2 22.81c0 9.071 3.067 16.666 9.2 22.793s13.733 9.19 22.8 9.19h490.667c9.067 0 16.666-3.068 22.797-9.203 6.135-6.135 9.203-13.739 9.203-22.81s-3.068-16.67-9.203-22.797c-6.131-6.127-13.73-9.186-22.797-9.186h-490.667z" />
<glyph unicode="&#xe90c;" glyph-name="remove-outlined" d="M266.667 416.004c-9.067 0-16.666 3.068-22.8 9.203s-9.2 13.739-9.2 22.81c0 9.071 3.067 16.666 9.2 22.793s13.733 9.19 22.8 9.19h490.667c9.067 0 16.666-3.068 22.797-9.203 6.135-6.135 9.203-13.739 9.203-22.81s-3.068-16.67-9.203-22.797c-6.131-6.127-13.73-9.186-22.797-9.186h-490.667z" />
<glyph unicode="&#xe90d;" glyph-name="rss-filled" d="M260.922 85.338c-18.954 0-35.179 6.746-48.676 20.245-13.498 13.495-20.246 29.722-20.246 48.674 0 18.957 6.749 35.179 20.246 48.678 13.497 13.495 29.722 20.245 48.676 20.245s35.179-6.75 48.676-20.245c13.497-13.5 20.246-29.722 20.246-48.678 0-18.953-6.749-35.179-20.246-48.674-13.498-13.5-29.723-20.245-48.676-20.245zM827.149 85.338c-13.888 0-25.417 5.21-34.586 15.637-9.169 10.423-14.541 22.771-16.111 37.039-6.182 70.618-23.962 136.794-53.333 198.524-29.376 61.73-67.938 116.471-115.691 164.224-47.757 47.754-102.498 86.318-164.228 115.692s-127.905 47.153-198.524 53.333c-14.266 1.583-26.612 6.988-37.038 16.215s-15.638 20.698-15.638 34.409c0 13.909 4.964 25.276 14.893 34.103s21.592 12.666 34.994 11.517c84.731-6.181 163.951-26.625 237.661-61.332 73.707-34.708 138.761-80.26 195.157-136.656s101.948-121.45 136.657-195.157c34.705-73.711 55.151-152.93 61.333-237.662 1.148-13.402-2.684-25.067-11.499-34.995-8.811-9.929-20.16-14.891-34.048-14.891zM580.924 85.338c-13.402 0-24.794 4.855-34.176 14.562-9.378 9.711-15.3 21.265-17.762 34.667-5.308 37.854-16.166 72.836-32.576 104.943-16.41 32.111-37.525 61.077-63.343 86.895s-54.783 46.933-86.893 63.343c-32.11 16.41-67.091 27.268-104.944 32.576-13.401 2.462-24.956 8.38-34.666 17.762s-14.564 20.749-14.564 34.099c0 13.888 4.964 25.306 14.893 34.249s21.592 12.403 34.994 10.377c50.543-5.743 97.777-19.418 141.702-41.024 43.927-21.606 82.979-49.502 117.168-83.691s62.084-73.246 83.695-117.171c21.606-43.925 35.281-91.157 41.024-141.7 2.022-13.402-1.459-25.067-10.449-34.995s-20.356-14.891-34.103-14.891z" />
<glyph unicode="&#xe90e;" glyph-name="series_result-outlined" d="M237.573 151.121c-23.48 0-42.611 19.132-42.611 42.611v528.701c0 23.48 19.13 42.611 42.611 42.611h419.136c23.479 0 42.611-19.13 42.611-42.611v-197.394c23.479-2.607 46.089-8.695 66.957-17.391l-0.009 214.787c0 60.869-49.57 109.565-109.568 109.565h-419.135c-60.869 0-109.565-49.569-109.565-109.565v-527.832c0-60.868 49.569-109.564 109.565-109.564h267.83c-21.739 19.127-40.87 41.737-54.784 66.957l-213.048-0.004 0.009-0.87zM542.042 491.145h-225.222c-18.264 0-33.913-14.78-33.913-33.911 0-18.266 14.782-33.916 33.913-33.916h150.436c20.006 27.823 45.218 51.307 74.79 67.827h-0.004zM611.605 617.211c0 18.264-14.78 33.914-33.911 33.914h-260.874c-18.264 0-33.913-14.782-33.913-33.914 0-19.13 15.655-33.045 33.913-33.045h260.874c19.127 0 33.911 14.788 33.911 33.045zM316.82 331.998c-18.264 0-33.913-15.646-33.913-33.911s14.782-33.911 33.913-33.911h101.74v9.566c0 19.998 2.608 39.125 6.958 57.391h-108.697l-0.001 0.866zM919.292 98.155l-90.441 75.648c19.132 29.568 29.564 63.479 29.564 100.873 0 104.35-84.348 188.702-188.698 188.702-104.346 0-188.698-84.352-188.698-188.702 0-104.346 84.352-188.698 188.698-188.698 37.389 0 72.175 11.307 100.873 29.564l75.661-90.432c1.741-2.607 4.348-5.214 6.955-6.955 22.609-18.266 54.784-15.65 73.045 6.955 19.127 21.739 15.646 54.784-6.959 73.045zM533.201 274.675c0 75.652 60.868 136.529 136.525 136.529 75.652 0 136.529-60.868 136.529-136.529 0-75.648-60.873-136.525-136.529-136.525-74.782 0.004-136.525 60.877-136.525 136.525zM705.37 332.019l-51.302-58.261-19.132 21.739c-9.566 10.432-26.091 12.173-36.523 2.607s-12.173-26.086-2.607-36.523l38.263-43.477c5.214-5.218 12.173-8.7 19.127-8.7 7.825 0 14.784 3.477 19.132 8.7l71.309 80.866c9.566 10.436 8.7 26.957-2.607 36.523-9.574 8.7-26.095 6.959-35.661-3.473z" />
<glyph unicode="&#xe90f;" glyph-name="add_comment-filled" d="M512.013 864c103.633 0 205.517-7.582 305.122-22.225 84.407-12.41 142.865-86.338 142.865-169.372v-256.808c0-83.034-58.458-156.958-142.865-169.37-48.905-7.189-98.355-12.676-148.297-16.401-5.312-0.397-9.933-3.157-12.668-7.253l-117.547-176.32c-5.935-8.905-15.923-14.251-26.624-14.251s-20.689 5.346-26.624 14.251l-117.55 176.32c-2.732 4.1-7.355 6.861-12.665 7.258-49.941 3.725-99.395 9.212-148.297 16.401-84.408 12.412-142.863 86.34-142.863 169.374v256.796c0 83.033 58.455 156.96 142.863 169.371 99.612 14.646 201.505 22.229 305.149 22.229zM544 640c0 17.673-14.327 32-32 32s-32-14.327-32-32v-96h-96c-17.673 0-32-14.327-32-32s14.327-32 32-32h96v-96c0-17.673 14.327-32 32-32s32 14.327 32 32v96h96c17.673 0 32 14.327 32 32s-14.327 32-32 32h-96v96z" />
<glyph unicode="&#xe910;" glyph-name="add_comment-outlined" d="M216.174 778.451c96.539 14.195 195.32 21.549 295.839 21.549 100.51 0 199.279-7.353 295.812-21.545 50.765-7.463 88.175-52.459 88.175-106.052v-256.808c0-53.589-37.41-98.586-88.175-106.052-44.855-6.592-90.193-11.712-135.966-15.3-29.436-2.308-56.661-17.758-73.335-42.765l-86.524-129.788-86.526 129.788c-16.673 25.011-43.898 40.461-73.333 42.769-45.772 3.588-91.111 8.708-135.967 15.305-50.764 7.462-88.173 52.459-88.173 106.052v256.796c0 53.592 37.41 98.588 88.174 106.052zM512.013 864c-103.645 0-205.537-7.583-305.149-22.229-84.408-12.411-142.863-86.338-142.863-169.371v-256.796c0-83.034 58.455-156.962 142.863-169.374 46.282-6.805 93.057-12.083 140.272-15.787 10.397-0.819 19.597-6.229 25.087-14.464l113.153-169.728c5.935-8.905 15.923-14.251 26.624-14.251s20.689 5.346 26.624 14.251l113.152 169.724c5.491 8.235 14.69 13.649 25.088 14.464 47.215 3.703 93.99 8.981 140.271 15.787 84.407 12.412 142.865 86.336 142.865 169.37v256.808c0 83.034-58.458 156.962-142.865 169.372-99.605 14.644-201.489 22.225-305.122 22.225zM544 640c0 17.673-14.327 32-32 32s-32-14.327-32-32v-96h-96c-17.673 0-32-14.327-32-32s14.327-32 32-32h96v-96c0-17.673 14.327-32 32-32s32 14.327 32 32v96h96c17.673 0 32 14.327 32 32s-14.327 32-32 32h-96v96z" />
<glyph unicode="&#xe911;" glyph-name="add_plus-filled" d="M512 800c17.673 0 32-14.327 32-32v-288h288c17.673 0 32-14.327 32-32s-14.327-32-32-32h-288v-288c0-17.673-14.327-32-32-32s-32 14.327-32 32v288h-288c-17.673 0-32 14.327-32 32s14.327 32 32 32h288v288c0 17.673 14.327 32 32 32z" />
<glyph unicode="&#xe912;" glyph-name="add_plus-outlined" d="M512 800c17.673 0 32-14.327 32-32v-288h288c17.673 0 32-14.327 32-32s-14.327-32-32-32h-288v-288c0-17.673-14.327-32-32-32s-32 14.327-32 32v288h-288c-17.673 0-32 14.327-32 32s14.327 32 32 32h288v288c0 17.673 14.327 32 32 32z" />
<glyph unicode="&#xe913;" glyph-name="airplanemode_active-filled" d="M376.205 42.675v50.052l82.871 61.538v242.462l-352.41-104.205v65.638l352.41 208.41v234.257c0 14.768 5.129 27.281 15.386 37.537s22.767 15.385 37.538 15.385c14.767 0 27.281-5.129 37.538-15.385s15.386-22.769 15.386-37.537v-234.257l352.41-208.41v-65.638l-352.41 104.205v-241.643l82.871-62.357v-50.052l-135.795 39.386-135.795-39.386z" />
<glyph unicode="&#xe914;" glyph-name="apps-filled" d="M256.005 123.072c-18.953 0-35.179 6.75-48.676 20.245-13.497 13.5-20.245 29.726-20.245 48.678s6.748 35.179 20.245 48.674c13.498 13.5 29.723 20.245 48.676 20.245s35.179-6.746 48.676-20.245c13.497-13.495 20.245-29.722 20.245-48.674s-6.749-35.179-20.245-48.678c-13.498-13.495-29.723-20.245-48.676-20.245zM512.004 123.072c-18.953 0-35.179 6.75-48.674 20.245-13.5 13.5-20.245 29.726-20.245 48.678s6.746 35.179 20.245 48.674c13.495 13.5 29.722 20.245 48.674 20.245s35.179-6.746 48.678-20.245c13.495-13.495 20.245-29.722 20.245-48.674s-6.75-35.179-20.245-48.678c-13.5-13.495-29.726-20.245-48.678-20.245zM768.004 123.072c-18.953 0-35.179 6.75-48.674 20.245-13.5 13.5-20.245 29.726-20.245 48.678s6.746 35.179 20.245 48.674c13.495 13.5 29.722 20.245 48.674 20.245s35.179-6.746 48.678-20.245c13.495-13.495 20.245-29.722 20.245-48.674s-6.75-35.179-20.245-48.678c-13.5-13.495-29.726-20.245-48.678-20.245zM256.005 379.072c-18.953 0-35.179 6.75-48.676 20.245-13.497 13.5-20.245 29.726-20.245 48.678s6.748 35.179 20.245 48.674c13.498 13.5 29.723 20.245 48.676 20.245s35.179-6.746 48.676-20.245c13.497-13.495 20.245-29.722 20.245-48.674s-6.749-35.179-20.245-48.678c-13.498-13.495-29.723-20.245-48.676-20.245zM512.004 379.072c-18.953 0-35.179 6.75-48.674 20.245-13.5 13.5-20.245 29.726-20.245 48.678s6.746 35.179 20.245 48.674c13.495 13.5 29.722 20.245 48.674 20.245s35.179-6.746 48.678-20.245c13.495-13.495 20.245-29.722 20.245-48.674s-6.75-35.179-20.245-48.678c-13.5-13.495-29.726-20.245-48.678-20.245zM768.004 379.072c-18.953 0-35.179 6.75-48.674 20.245-13.5 13.5-20.245 29.726-20.245 48.678s6.746 35.179 20.245 48.674c13.495 13.5 29.722 20.245 48.674 20.245s35.179-6.746 48.678-20.245c13.495-13.495 20.245-29.722 20.245-48.674s-6.75-35.179-20.245-48.678c-13.5-13.495-29.726-20.245-48.678-20.245zM256.005 635.073c-18.953 0-35.179 6.749-48.676 20.245s-20.245 29.723-20.245 48.676c0 18.953 6.748 35.179 20.245 48.676s29.723 20.245 48.676 20.245c18.953 0 35.179-6.748 48.676-20.245s20.245-29.723 20.245-48.676c0-18.953-6.749-35.179-20.245-48.676s-29.723-20.245-48.676-20.245zM512.004 635.073c-18.953 0-35.179 6.749-48.674 20.245-13.5 13.498-20.245 29.723-20.245 48.676s6.746 35.179 20.245 48.676c13.495 13.497 29.722 20.245 48.674 20.245s35.179-6.748 48.678-20.245c13.495-13.498 20.245-29.723 20.245-48.676s-6.75-35.179-20.245-48.676c-13.5-13.497-29.726-20.245-48.678-20.245zM768.004 635.073c-18.953 0-35.179 6.749-48.674 20.245-13.5 13.498-20.245 29.723-20.245 48.676s6.746 35.179 20.245 48.676c13.495 13.497 29.722 20.245 48.674 20.245s35.179-6.748 48.678-20.245c13.495-13.498 20.245-29.723 20.245-48.676s-6.75-35.179-20.245-48.676c-13.5-13.497-29.726-20.245-48.678-20.245z" />
<glyph unicode="&#xe915;" glyph-name="apps-outlined" d="M256.005 123.072c-18.953 0-35.179 6.75-48.676 20.245-13.497 13.5-20.245 29.726-20.245 48.678s6.748 35.179 20.245 48.674c13.498 13.5 29.723 20.245 48.676 20.245s35.179-6.746 48.676-20.245c13.497-13.495 20.245-29.722 20.245-48.674s-6.749-35.179-20.245-48.678c-13.498-13.495-29.723-20.245-48.676-20.245zM512.004 123.072c-18.953 0-35.179 6.75-48.674 20.245-13.5 13.5-20.245 29.726-20.245 48.678s6.746 35.179 20.245 48.674c13.495 13.5 29.722 20.245 48.674 20.245s35.179-6.746 48.678-20.245c13.495-13.495 20.245-29.722 20.245-48.674s-6.75-35.179-20.245-48.678c-13.5-13.495-29.726-20.245-48.678-20.245zM768.004 123.072c-18.953 0-35.179 6.75-48.674 20.245-13.5 13.5-20.245 29.726-20.245 48.678s6.746 35.179 20.245 48.674c13.495 13.5 29.722 20.245 48.674 20.245s35.179-6.746 48.678-20.245c13.495-13.495 20.245-29.722 20.245-48.674s-6.75-35.179-20.245-48.678c-13.5-13.495-29.726-20.245-48.678-20.245zM256.005 379.072c-18.953 0-35.179 6.75-48.676 20.245-13.497 13.5-20.245 29.726-20.245 48.678s6.748 35.179 20.245 48.674c13.498 13.5 29.723 20.245 48.676 20.245s35.179-6.746 48.676-20.245c13.497-13.495 20.245-29.722 20.245-48.674s-6.749-35.179-20.245-48.678c-13.498-13.495-29.723-20.245-48.676-20.245zM512.004 379.072c-18.953 0-35.179 6.75-48.674 20.245-13.5 13.5-20.245 29.726-20.245 48.678s6.746 35.179 20.245 48.674c13.495 13.5 29.722 20.245 48.674 20.245s35.179-6.746 48.678-20.245c13.495-13.495 20.245-29.722 20.245-48.674s-6.75-35.179-20.245-48.678c-13.5-13.495-29.726-20.245-48.678-20.245zM768.004 379.072c-18.953 0-35.179 6.75-48.674 20.245-13.5 13.5-20.245 29.726-20.245 48.678s6.746 35.179 20.245 48.674c13.495 13.5 29.722 20.245 48.674 20.245s35.179-6.746 48.678-20.245c13.495-13.495 20.245-29.722 20.245-48.674s-6.75-35.179-20.245-48.678c-13.5-13.495-29.726-20.245-48.678-20.245zM256.005 635.073c-18.953 0-35.179 6.749-48.676 20.245s-20.245 29.723-20.245 48.676c0 18.953 6.748 35.179 20.245 48.676s29.723 20.245 48.676 20.245c18.953 0 35.179-6.748 48.676-20.245s20.245-29.723 20.245-48.676c0-18.953-6.749-35.179-20.245-48.676s-29.723-20.245-48.676-20.245zM512.004 635.073c-18.953 0-35.179 6.749-48.674 20.245-13.5 13.498-20.245 29.723-20.245 48.676s6.746 35.179 20.245 48.676c13.495 13.497 29.722 20.245 48.674 20.245s35.179-6.748 48.678-20.245c13.495-13.498 20.245-29.723 20.245-48.676s-6.75-35.179-20.245-48.676c-13.5-13.497-29.726-20.245-48.678-20.245zM768.004 635.073c-18.953 0-35.179 6.749-48.674 20.245-13.5 13.498-20.245 29.723-20.245 48.676s6.746 35.179 20.245 48.676c13.495 13.497 29.722 20.245 48.674 20.245s35.179-6.748 48.678-20.245c13.495-13.498 20.245-29.723 20.245-48.676s-6.75-35.179-20.245-48.676c-13.5-13.497-29.726-20.245-48.678-20.245z" />
<glyph unicode="&#xe916;" glyph-name="arrow_back-filled" d="M864 448c0-17.673-14.327-32-32-32h-562.745l233.371-233.374c12.497-12.497 12.497-32.755 0-45.252s-32.755-12.497-45.252 0l-288.001 288c-12.497 12.497-12.497 32.755 0 45.252l288.001 288.001c12.497 12.497 32.755 12.497 45.252 0s12.497-32.758 0-45.255l-233.371-233.373h562.745c17.673 0 32-14.327 32-32z" />
<glyph unicode="&#xe917;" glyph-name="arrow_back-outlined" d="M502.626 758.627c12.497-12.497 12.497-32.758 0-45.255l-233.371-233.373h562.745c17.673 0 32-14.327 32-32s-14.327-32-32-32h-562.745l233.371-233.374c12.497-12.497 12.497-32.755 0-45.252s-32.755-12.497-45.252 0l-288.001 288c-12.497 12.497-12.497 32.755 0 45.252l288.001 288.001c12.497 12.497 32.755 12.497 45.252 0z" />
<glyph unicode="&#xe918;" glyph-name="arrow_downward-filled" d="M512 800c17.673 0 32-14.327 32-32v-562.743l233.374 233.37c12.497 12.497 32.755 12.497 45.252 0s12.497-32.755 0-45.252l-288-288c-12.497-12.497-32.755-12.497-45.252 0l-288.001 288c-12.497 12.497-12.497 32.755 0 45.252s32.758 12.497 45.255 0l233.373-233.37v562.743c0 17.673 14.327 32 32 32z" />
<glyph unicode="&#xe919;" glyph-name="arrow_downward-outlined" d="M512 800c17.673 0 32-14.327 32-32v-562.743l233.374 233.37c12.497 12.497 32.755 12.497 45.252 0s12.497-32.755 0-45.252l-288-288c-12.497-12.497-32.755-12.497-45.252 0l-288.001 288c-12.497 12.497-12.497 32.755 0 45.252s32.758 12.497 45.255 0l233.373-233.37v562.743c0 17.673 14.327 32 32 32z" />
<glyph unicode="&#xe91a;" glyph-name="arrow_forward-filled" d="M160 448c0 17.673 14.327 32 32 32h562.743l-233.37 233.373c-12.497 12.497-12.497 32.758 0 45.255s32.755 12.497 45.252 0l288-288.001c12.497-12.497 12.497-32.755 0-45.252l-288-288c-12.497-12.497-32.755-12.497-45.252 0s-12.497 32.755 0 45.252l233.37 233.374h-562.743c-17.673 0-32 14.327-32 32z" />
<glyph unicode="&#xe91b;" glyph-name="arrow_forward-outlined" d="M521.374 758.627c12.497 12.497 32.755 12.497 45.252 0l288-288.001c12.497-12.497 12.497-32.755 0-45.252l-288-288c-12.497-12.497-32.755-12.497-45.252 0s-12.497 32.755 0 45.252l233.37 233.374h-562.743c-17.673 0-32 14.327-32 32s14.327 32 32 32h562.743l-233.37 233.373c-12.497 12.497-12.497 32.758 0 45.255z" />
<glyph unicode="&#xe91c;" glyph-name="arrow_upward-filled" d="M512 96c-17.673 0-32 14.327-32 32v562.745l-233.373-233.371c-12.497-12.497-32.758-12.497-45.255 0s-12.497 32.755 0 45.252l288.001 288.001c12.497 12.497 32.755 12.497 45.252 0l288-288.001c12.497-12.497 12.497-32.755 0-45.252s-32.755-12.497-45.252 0l-233.374 233.371v-562.745c0-17.673-14.327-32-32-32z" />
<glyph unicode="&#xe91d;" glyph-name="arrow_upward-outlined" d="M489.374 790.627c12.497 12.497 32.755 12.497 45.252 0l288-288.001c12.497-12.497 12.497-32.755 0-45.252s-32.755-12.497-45.252 0l-233.374 233.371v-562.745c0-17.673-14.327-32-32-32s-32 14.327-32 32v562.745l-233.373-233.371c-12.497-12.497-32.758-12.497-45.255 0s-12.497 32.755 0 45.252l288.001 288.001z" />
<glyph unicode="&#xe91e;" glyph-name="article-filled" d="M320 232h240c6.801 0 12.501 2.304 17.101 6.908 4.599 4.608 6.899 10.317 6.899 17.126s-2.3 12.506-6.899 17.088c-4.599 4.587-10.3 6.878-17.101 6.878h-240c-6.8 0-12.5-2.304-17.1-6.908-4.6-4.608-6.9-10.317-6.9-17.126s2.3-12.506 6.9-17.088c4.6-4.587 10.3-6.878 17.1-6.878zM320 424h384c6.801 0 12.501 2.304 17.101 6.908 4.599 4.608 6.899 10.317 6.899 17.126s-2.3 12.506-6.899 17.088c-4.599 4.587-10.3 6.878-17.101 6.878h-384c-6.8 0-12.5-2.304-17.1-6.908-4.6-4.608-6.9-10.317-6.9-17.126s2.3-12.506 6.9-17.088c4.6-4.587 10.3-6.878 17.1-6.878zM320 616h384c6.801 0 12.501 2.303 17.101 6.909s6.899 10.313 6.899 17.123c0 6.81-2.3 12.506-6.899 17.091s-10.3 6.877-17.101 6.877h-384c-6.8 0-12.5-2.303-17.1-6.909s-6.9-10.313-6.9-17.123c0-6.81 2.3-12.506 6.9-17.091s10.3-6.877 17.1-6.877zM205.538 64c-22.092 0-40.538 7.398-55.338 22.199s-22.2 33.246-22.2 55.339v612.924c0 22.092 7.4 40.538 22.2 55.338s33.246 22.2 55.338 22.2h612.924c22.093 0 40.538-7.4 55.339-22.2s22.199-33.246 22.199-55.338v-612.924c0-22.093-7.398-40.538-22.199-55.339s-33.246-22.199-55.339-22.199h-612.924z" />
<glyph unicode="&#xe91f;" glyph-name="article-outlined" d="M331.293 233.412h225.882c9.617 0 17.664 3.243 24.154 9.728 6.485 6.49 9.728 14.541 9.728 24.154s-3.243 17.664-9.728 24.149c-6.49 6.49-14.537 9.732-24.154 9.732h-225.882c-9.614 0-17.665-3.243-24.151-9.732-6.487-6.485-9.73-14.537-9.73-24.149s3.243-17.664 9.73-24.154c6.487-6.485 14.537-9.728 24.151-9.728zM331.293 414.118h361.413c9.613 0 17.664 3.243 24.154 9.732 6.485 6.485 9.728 14.537 9.728 24.149s-3.243 17.664-9.728 24.149c-6.49 6.49-14.541 9.732-24.154 9.732h-361.413c-9.614 0-17.665-3.243-24.151-9.732-6.487-6.485-9.73-14.537-9.73-24.149s3.243-17.664 9.73-24.149c6.487-6.49 14.537-9.732 24.151-9.732zM331.293 594.825h361.413c9.613 0 17.664 3.244 24.154 9.73 6.485 6.487 9.728 14.537 9.728 24.151s-3.243 17.664-9.728 24.151c-6.49 6.487-14.541 9.73-24.154 9.73h-361.413c-9.614 0-17.665-3.244-24.151-9.73s-9.73-14.537-9.73-24.151c0-9.615 3.243-17.665 9.73-24.151s14.537-9.73 24.151-9.73zM209.666 64c-22.82 0-42.136 7.906-57.948 23.718s-23.718 35.127-23.718 57.946v604.67c0 22.82 7.906 42.136 23.718 57.948s35.128 23.718 57.948 23.718h604.67c22.818 0 42.133-7.906 57.946-23.718s23.718-35.128 23.718-57.948v-604.67c0-22.818-7.906-42.133-23.718-57.946s-35.127-23.718-57.946-23.718h-604.67zM209.666 131.763h604.67c3.473 0 6.66 1.451 9.557 4.343 2.893 2.897 4.343 6.084 4.343 9.557v604.67c0 3.476-1.451 6.662-4.343 9.558-2.897 2.896-6.084 4.344-9.557 4.344h-604.67c-3.476 0-6.662-1.448-9.558-4.344s-4.344-6.083-4.344-9.558v-604.67c0-3.473 1.448-6.66 4.344-9.557 2.897-2.893 6.083-4.343 9.558-4.343z" />
<glyph unicode="&#xe920;" glyph-name="bat" d="M474.492 613.357l-256.55-444.359c-11.785-20.412-4.817-46.417 15.596-58.206l148.12-85.517c20.413-11.785 46.417-4.817 58.202 15.599l256.55 444.356c11.789 20.416 4.817 46.421-15.595 58.205l-148.117 85.517c-20.412 11.785-46.421 4.817-58.206-15.596zM559.859 590.388l74.018-42.734 176.388 305.51c2.453 4.252 0.998 9.688-3.255 12.143l-58.62 33.845c-4.254 2.455-9.69 0.998-12.143-3.253l-176.388-305.51z" />
<glyph unicode="&#xe921;" glyph-name="batsman-filled" d="M305.371 514.21l19.708 58.508-171.213 170.597c-12.934 12.933-25.867 25.867-25.867 49.27 0 12.934 26.482 39.416 39.416 39.416 22.328 0 34.005-11.212 47.333-24.009 0.641-0.616 1.287-1.236 1.937-1.858l170.597-171.213 58.508 19.708c4.928 1.847 9.856 0.616 13.551-3.079l440.964-440.964c2.462-2.466 3.695-5.542 3.695-9.237 0-1.852-0.614-49.886-48.038-97.31s-95.458-48.038-97.31-48.038c-3.695 0-6.771 1.233-9.237 3.695l-440.963 440.964c-3.695 3.695-4.927 8.623-3.080 13.551zM524.621 83.106c0-43.11-35.102-78.831-78.831-78.831-43.111 0-78.831 35.721-78.831 78.831s35.721 78.831 78.831 78.831c43.11 0 78.831-35.721 78.831-78.831z" />
<glyph unicode="&#xe922;" glyph-name="batsman-outlined" d="M128.399 795.581c-0.262-1.062-0.401-2.069-0.401-3.005 0-23.404 12.934-36.337 25.867-49.27l0.002 0.009c-12.934 12.933-25.867 25.867-25.867 49.27 0 0.934 0.138 1.937 0.399 2.997zM891.712 154.547c-7.070-15.339-18.21-32.969-35.75-50.509-47.424-47.424-95.458-48.038-97.31-48.038-3.695 0-6.771 1.233-9.237 3.695l-440.963 440.964c-3.319 3.319-4.651 7.633-3.549 12.045-1.105-4.416 0.226-8.73 3.547-12.053l440.966-440.964c2.462-2.462 5.542-3.695 9.237-3.695 1.847 0 49.886 0.614 97.31 48.038 17.545 17.545 28.681 35.174 35.75 50.517zM310.408 569.257l-17.11-50.797c-3.592-9.852-0.858-19.9 6.1-26.859l440.963-440.964c5.022-5.022 11.43-7.445 18.291-7.445 3.849 0 55.701 1.131 106.359 51.789 50.654 50.654 51.785 102.511 51.785 106.359 0 6.861-2.423 13.265-7.441 18.287l-440.964 440.965c-6.959 6.958-17.011 9.693-26.863 6.1l-50.795-17.11-167.52 168.022c-13.105 12.631-28.209 27.188-55.799 27.188-6.924 0-13.543-3.255-18.392-6.281-5.292-3.303-10.565-7.674-15.217-12.326s-9.022-9.925-12.326-15.216c-3.026-4.849-6.281-11.468-6.281-18.392 0-28.726 16.283-44.998 28.956-57.662l0.676-0.675 165.578-164.982zM362.132 562.1l35.759 35.759 45.058 15.019 420.894-420.894c-2.62-12.361-10.978-35.994-35.409-60.425-24.188-24.192-47.71-32.307-60.599-35.238l-420.721 420.723 15.019 45.056zM390.976 609.046l55.429 18.476 431.113-431.11c-0.154-1.463-0.405-3.226-0.785-5.248 0.38 2.027 0.631 3.789 0.785 5.257l-431.113 431.11-55.427-18.476-40.034-40.041 40.032 40.032zM367.537 73.621c-0.383 3.11-0.581 6.272-0.581 9.476 0 43.11 35.721 78.831 78.833 78.831 37.726 0 69.79-27.354 77.214-63.078-7.428 35.716-39.492 63.066-77.214 63.066-43.111 0-78.831-35.721-78.831-78.831 0-3.2 0.197-6.357 0.579-9.463zM498.394 89.89c0.239-2.035 0.363-4.1 0.363-6.191 0-29.559-24.021-52.962-52.966-52.962-26.065 0-48.135 19.473-52.27 44.484 4.14-25.003 26.207-44.471 52.27-44.471 28.945 0 52.962 23.403 52.962 52.962 0 2.086-0.119 4.147-0.358 6.178zM445.79-8.533c50.859 0 91.631 41.515 91.631 91.631 0 50.18-41.451 91.631-91.631 91.631-50.182 0-91.633-41.451-91.633-91.631s41.451-91.631 91.633-91.631zM445.79 123.878c22.396 0 40.162-18.193 40.162-40.166 0-22.396-18.189-40.162-40.162-40.162-21.879 0-40.167 18.287-40.167 40.162 0 21.879 18.288 40.166 40.167 40.166z" />
<glyph unicode="&#xe923;" glyph-name="brand_logos-facebook-square" d="M810.667 832h-597.333c-47.147 0-85.333-38.187-85.333-85.333v-597.333c0-47.147 38.187-85.333 85.333-85.333h325.163v297.003h-99.968v116.267h99.968v85.547c0 99.157 60.629 153.216 149.12 153.216 29.824 0.085 59.605-1.451 89.259-4.48v-103.68h-60.928c-48.213 0-57.6-22.784-57.6-56.405v-74.027h115.2l-14.976-116.267h-100.907v-297.173h153.003c47.147 0 85.333 38.187 85.333 85.333v597.333c0 47.147-38.187 85.333-85.333 85.333z" />
<glyph unicode="&#xe924;" glyph-name="brand_logos-facebook" d="M673.754 832v-148.983h-75.371c-12.851-1.169-22.199-7.596-28.041-19.28-5.845-10.516-8.764-22.786-8.764-36.808v-92.895h112.175v-150.734h-112.175v-297.967h-150.737v297.967h-112.175v150.734h112.175v148.983c1.169 42.065 15.775 77.12 43.818 105.164 28.045 28.044 63.684 42.65 106.918 43.819h112.175z" />
<glyph unicode="&#xe925;" glyph-name="brand_logos-instagram" d="M331.718 874.667h360.565c69.44-1.335 127.531-25.373 174.272-72.113 46.737-46.74 70.775-104.83 72.111-174.272v-360.565c-1.335-69.44-25.374-127.531-72.111-174.272-46.741-46.737-104.832-70.775-174.272-72.111h-360.565c-69.442 1.335-127.533 25.374-174.272 72.111-46.74 46.741-70.777 104.832-72.113 174.272v360.565c1.335 69.442 25.373 127.533 72.113 174.272s104.83 70.777 174.272 72.113zM323.706 790.535c-44.069-1.335-80.793-16.693-110.172-46.072-28.044-28.044-42.733-64.1-44.069-108.169v-376.587c1.335-44.070 16.025-80.794 44.069-110.174 29.379-28.045 66.103-42.735 110.172-44.070h376.587c44.070 1.335 80.128 16.026 108.173 44.070 29.376 29.38 44.736 66.103 46.071 110.174v376.587c-1.335 44.069-16.695 80.125-46.071 108.169-28.045 29.379-64.102 44.736-108.173 46.072h-376.587zM736.35 726.435c14.69-1.335 26.709-7.345 36.058-18.028 10.684-9.348 16.026-21.367 16.026-36.056s-5.342-27.376-16.026-38.060c-9.348-9.348-21.367-14.022-36.058-14.022s-27.375 4.674-38.059 14.022c-9.348 10.683-14.020 23.37-14.020 38.060s4.672 26.708 14.020 36.056c10.684 10.683 23.369 16.692 38.059 18.028zM512 662.335c60.096-1.335 110.174-22.702 150.234-64.1 41.399-40.063 62.767-90.139 64.102-150.235-1.335-60.096-22.703-110.839-64.102-152.239-40.060-40.060-90.138-60.762-150.234-62.097-60.096 1.335-110.84 22.037-152.238 62.097-40.062 41.399-60.762 92.143-62.097 152.239 1.335 60.096 22.034 110.172 62.097 150.235 41.398 41.398 92.142 62.765 152.238 64.1zM512 576.2c-36.058-1.335-66.103-14.022-90.141-38.059s-36.056-54.083-36.056-90.141c0-36.058 12.019-66.103 36.056-90.142s54.083-36.053 90.141-36.053c36.058 0 66.103 12.015 90.142 36.053s36.053 54.084 36.053 90.142c0 36.058-12.015 66.103-36.053 90.141s-54.084 36.724-90.142 38.059z" />
<glyph unicode="&#xe926;" glyph-name="brand_logos-messenger" d="M85.333 460.8c0 237.76 186.347 413.867 426.667 413.867s426.667-176.213 426.667-413.973c0-237.76-186.347-413.867-426.667-413.867-43.2 0-84.587 5.76-123.52 16.427-7.573 2.027-15.68 1.493-22.827-1.707l-84.693-37.333c-5.115-2.257-10.706-3.221-16.282-2.812s-10.965 2.185-15.695 5.167c-4.73 2.978-8.655 7.074-11.43 11.93-2.775 4.851-4.317 10.313-4.487 15.902l-2.347 75.947c-0.213 9.387-4.48 18.133-11.413 24.32-82.987 74.24-133.973 181.76-133.973 306.133zM381.12 538.56l-125.333-198.827c-12.053-19.093 11.413-40.533 29.333-26.88l134.613 102.187c4.429 3.362 9.834 5.193 15.394 5.214 5.564 0.017 10.982-1.775 15.433-5.107l99.733-74.773c7.074-5.312 15.172-9.101 23.787-11.127 8.61-2.022 17.549-2.24 26.249-0.636s16.973 4.992 24.299 9.954c7.322 4.962 13.538 11.392 18.253 18.876l125.44 198.72c11.947 19.093-11.52 40.64-29.44 26.987l-134.613-102.187c-4.429-3.362-9.835-5.193-15.394-5.214-5.564-0.017-10.978 1.775-15.433 5.107l-99.733 74.773c-7.074 5.313-15.172 9.101-23.782 11.126-8.614 2.025-17.553 2.242-26.252 0.638s-16.973-4.994-24.297-9.956c-7.324-4.963-13.539-11.389-18.254-18.875z" />
<glyph unicode="&#xe927;" glyph-name="brand_logos-pinterest" d="M511.825 874.667c-235.887 0-426.492-190.956-426.492-426.492 0-180.774 112.327-335.223 270.989-397.355-3.861 33.698-7.020 85.649 1.404 122.505 7.723 33.348 49.845 212.019 49.845 212.019s-12.636 25.621-12.636 63.181c0 59.324 34.399 103.553 77.223 103.553 36.506 0 54.059-27.38 54.059-60.024 0-36.506-23.168-91.264-35.452-142.165-10.18-42.47 21.41-77.222 63.181-77.222 75.823 0 134.093 80.034 134.093 195.166 0 102.148-73.365 173.406-178.321 173.406-121.452 0-192.71-90.914-192.71-184.99 0-36.506 14.041-75.819 31.592-97.233 3.511-4.211 3.861-8.073 2.808-12.284-3.159-13.338-10.531-42.475-11.935-48.439-1.755-7.723-6.319-9.481-14.392-5.619-52.653 25.276-85.649 103.202-85.649 165.683 0 134.441 97.584 258.001 281.87 258.001 147.78 0 262.916-105.306 262.916-246.417 0-147.076-92.672-265.374-221.146-265.374-43.174 0-83.891 22.468-97.583 49.143 0 0-21.41-81.438-26.675-101.444-9.481-37.21-35.455-83.541-53.007-111.974 40.017-12.288 82.139-18.957 126.368-18.957 235.537 0 426.492 190.955 426.492 426.492-0.35 235.886-191.309 426.842-426.842 426.842z" />
<glyph unicode="&#xe928;" glyph-name="brand_logos-twitter" d="M129.781 789.333l281.59-376.597-283.371-306.057h63.776l248.1 268.006 200.516-268.019h216.977l-297.451 397.709 263.765 284.958h-63.774l-228.484-246.784-184.624 246.784h-217.021zM223.574 742.347h99.704l440.25-588.678h-99.674l-440.281 588.678z" />
<glyph unicode="&#xe929;" glyph-name="brand_logos-whatsapp" d="M813.952 749.739c-80.469 80.512-187.477 124.885-301.483 124.928-234.923 0-426.112-191.104-426.197-426.027-0.043-75.093 19.584-148.395 56.875-212.992l-57.813-214.315 223.275 52.779c62.251-33.963 132.309-51.84 203.648-51.883h0.171c234.88 0 426.069 191.147 426.197 426.027 0.085 113.877-44.203 220.928-124.672 301.483zM720.981 296.363c-8.875-24.875-52.352-48.853-71.893-50.603-19.541-1.792-37.845-8.832-127.787 26.624-108.245 42.667-176.597 153.643-181.888 160.725-5.333 7.125-43.477 57.728-43.477 110.123s27.52 78.165 37.291 88.789c9.771 10.667 21.291 13.312 28.416 13.312 7.083 0 14.208 0 20.395-0.256 7.595-0.299 16-0.683 23.979-18.389 9.472-21.077 30.165-73.728 32.811-79.061s4.437-11.563 0.896-18.645c-3.541-7.083-5.333-11.52-10.624-17.749-5.333-6.229-11.179-13.867-15.957-18.645-5.333-5.291-10.88-11.093-4.693-21.717 6.229-10.667 27.563-45.525 59.221-73.728 40.704-36.267 74.965-47.488 85.632-52.864 10.667-5.333 16.853-4.437 23.083 2.688 6.229 7.083 26.624 31.061 33.707 41.728s14.208 8.875 23.979 5.333c9.771-3.541 62.123-29.312 72.747-34.645 10.667-5.333 17.749-7.979 20.395-12.416 2.645-4.395 2.645-25.728-6.229-50.603z" />
<glyph unicode="&#xe92a;" glyph-name="bug_report-filled" d="M511.172 64c-44.617 0-84.874 12.314-120.765 36.937s-61.074 57.591-75.548 98.91h-103.55c-8.363 0-15.521 2.953-21.474 8.858s-8.929 13.005-8.929 21.295c0 8.132 2.976 15.232 8.929 21.303s13.111 9.105 21.474 9.105h94.711c-2.591 16.772-4.056 33.805-4.396 51.089s-0.51 34.611-0.51 51.977h-89.804c-8.363 0-15.521 2.953-21.474 8.858s-8.929 13.005-8.929 21.299c0 8.128 2.976 15.232 8.929 21.303 5.953 6.067 13.111 9.105 21.474 9.105h89.804c0 17.839-0.056 35.494-0.169 52.966-0.114 17.468 1.578 34.505 5.075 51.119h-94.711c-8.363 0-15.521 2.953-21.474 8.856-5.953 5.905-8.929 13.004-8.929 21.297 0 8.131 2.976 15.232 8.929 21.302s13.111 9.107 21.474 9.107h103.55c7.058 23.183 19.141 43.628 36.248 61.335 17.108 17.708 36.482 32.604 58.121 44.69l-85.725 84.851c-6.735 6.411-9.892 13.429-9.471 21.054s3.654 14.59 9.701 20.896c6.516 6.775 13.254 10.268 20.216 10.479s13.939-3.1 20.933-9.932l104.617-103.598c14.097 3.238 28.501 4.857 43.213 4.857 14.707 0 29.171-1.619 43.388-4.857l102.575 102.481c6.673 6.833 13.952 10.184 21.85 10.054 7.893-0.13 14.724-3.347 20.489-9.653 6.519-6.775 9.775-13.789 9.775-21.042s-3.285-14.165-9.86-20.739l-84.851-84.851c21.308-12.239 39.684-27.319 55.13-45.242 15.445-17.921 27.537-38.182 36.279-60.783h103.791c8.205 0 15.279-2.953 21.231-8.858 5.956-5.905 8.93-12.923 8.93-21.053 0-8.293-2.974-15.475-8.93-21.545-5.952-6.072-13.026-9.105-21.231-9.105h-94.95c3.238-16.614 4.864-33.681 4.881-51.2 0.017-17.523 0.026-35.153 0.026-52.885h90.044c8.205 0 15.279-2.953 21.231-8.858 5.956-5.905 8.93-12.924 8.93-21.056 0-8.29-2.974-15.475-8.93-21.547-5.952-6.067-13.026-9.105-21.231-9.105h-90.044c0-17.259-0.171-34.556-0.512-51.895s-1.805-34.398-4.395-51.17h94.95c8.205 0 15.279-2.953 21.231-8.858 5.956-5.905 8.93-12.924 8.93-21.052 0-8.294-2.974-15.475-8.93-21.547-5.952-6.071-13.026-9.105-21.231-9.105h-103.791c-14.473-41.318-39.654-74.287-75.55-98.91-35.891-24.623-76.143-36.937-120.764-36.937zM460.356 288.725h101.436c8.166 0 15.292 2.953 21.372 8.858s9.118 13.005 9.118 21.299c0 8.128-2.965 15.232-8.896 21.299-5.931 6.071-12.983 9.109-21.154 9.109h-101.431c-8.333 0-15.539-2.953-21.619-8.858-6.076-5.905-9.118-12.924-9.118-21.056 0-8.29 2.965-15.475 8.896-21.542 5.931-6.071 13.065-9.109 21.397-9.109zM460.356 438.221h101.436c8.166 0 15.292 2.953 21.372 8.858s9.118 13.005 9.118 21.295c0 8.132-2.965 15.236-8.896 21.303-5.931 6.071-12.983 9.109-21.154 9.109h-101.431c-8.333 0-15.539-2.953-21.619-8.858-6.076-5.905-9.118-12.924-9.118-21.056 0-8.29 2.965-15.475 8.896-21.547 5.931-6.067 13.065-9.105 21.397-9.105z" />
<glyph unicode="&#xe92b;" glyph-name="bug_report-outlined" d="M511.893 64c-44.966 0-85.564 12.271-121.792 36.813s-61.624 57.557-76.191 99.042h-100.894c-9.098 0-16.724 3.055-22.879 9.161s-9.232 13.675-9.232 22.703c0 9.033 3.077 16.678 9.232 22.95 6.155 6.268 13.781 9.404 22.879 9.404h90.254c-2.534 16.154-3.802 32.512-3.802 49.088v49.719h-86.452c-9.098 0-16.724 3.051-22.879 9.161-6.155 6.106-9.232 13.675-9.232 22.703 0 9.033 3.077 16.678 9.232 22.95 6.155 6.268 13.781 9.404 22.879 9.404h86.452c0 16.785-0.158 33.489-0.474 50.116s1.108 32.858 4.276 48.691h-90.254c-9.098 0-16.724 3.051-22.879 9.16s-9.232 13.676-9.232 22.705 3.077 16.678 9.232 22.948c6.155 6.27 13.781 9.405 22.879 9.405h100.894c6.903 22.674 18.554 42.773 34.954 60.297 16.399 17.524 35.18 32.323 56.343 44.397l-82.464 81.988c-6.839 6.682-10.054 14.21-9.642 22.586s3.907 15.853 10.484 22.431c6.785 6.785 14.041 10.178 21.768 10.178s15.011-3.42 21.85-10.26l101.94-100.703c14.451 3.167 29.035 4.75 43.755 4.75s29.363-1.583 43.93-4.75l100.706 100.228c6.682 6.84 14.276 10.26 22.793 10.26 8.512 0 15.919-3.289 22.225-9.867 6.784-6.785 10.176-14.247 10.176-22.385s-3.422-15.628-10.261-22.468l-81.988-81.988c20.838-12.224 38.81-27.14 53.918-44.747 15.104-17.608 26.931-37.59 35.482-59.948h100.894c9.097 0 16.725-3.054 22.878-9.161 6.157-6.108 9.233-13.676 9.233-22.705s-3.076-16.678-9.233-22.948c-6.153-6.272-13.781-9.403-22.878-9.403h-90.253c3.166-15.834 4.591-32.094 4.275-48.772s-0.478-33.357-0.478-50.035h86.455c9.097 0 16.725-3.055 22.878-9.161 6.157-6.11 9.233-13.675 9.233-22.707 0-9.028-3.076-16.678-9.233-22.946-6.153-6.272-13.781-9.404-22.878-9.404h-86.455v-49.643c0-16.623-1.263-33.011-3.797-49.165h90.253c9.097 0 16.725-3.055 22.878-9.161 6.157-6.11 9.233-13.675 9.233-22.703 0-9.033-3.076-16.678-9.233-22.95-6.153-6.268-13.781-9.404-22.878-9.404h-100.894c-14.566-41.485-39.966-74.5-76.19-99.042-36.228-24.542-76.826-36.813-121.796-36.813zM511.893 128.222c40.077 0 74.385 14.409 102.929 43.226 28.535 28.817 43.631 63.808 45.278 104.977v237.129c1.647 41.167-12.147 76.16-41.374 104.977-29.231 28.817-64.636 43.226-106.214 43.226s-76.574-14.409-104.978-43.226c-28.406-28.817-43.020-63.81-43.843-104.977v-237.129c-0.823-41.169 13.173-76.16 41.991-104.977s64.223-43.226 106.211-43.226zM462.575 288.777h98.206c9.067 0 16.742 3.055 23.019 9.161 6.281 6.11 9.417 13.679 9.417 22.707s-3.068 16.678-9.199 22.946c-6.135 6.272-13.734 9.404-22.801 9.404h-98.21c-9.067 0-16.738-3.051-23.014-9.161-6.281-6.106-9.421-13.675-9.421-22.703s3.068-16.678 9.203-22.95c6.131-6.268 13.734-9.404 22.801-9.404zM462.575 436.979h98.206c9.067 0 16.742 3.055 23.019 9.165 6.281 6.106 9.417 13.675 9.417 22.703s-3.068 16.678-9.199 22.95c-6.135 6.268-13.734 9.404-22.801 9.404h-98.21c-9.067 0-16.738-3.055-23.014-9.161-6.281-6.11-9.421-13.679-9.421-22.707s3.068-16.678 9.203-22.946c6.131-6.272 13.734-9.408 22.801-9.408z" />
<glyph unicode="&#xe92c;" glyph-name="calendar_today-filled" d="M227.289 49.067c-20.424 0-37.811 7.177-52.161 21.525s-21.524 31.735-21.524 52.16v571.846c0 20.425 7.174 37.812 21.524 52.16 14.35 14.35 31.77 21.525 52.259 21.525h64.224v60.484c0 8.515 3.028 15.804 9.083 21.87s13.385 9.098 21.99 9.098c8.605 0 15.934-3.032 21.99-9.098s9.082-13.355 9.082-21.87v-60.484h320.575v61.315c0 8.237 2.957 15.319 8.875 21.246s13.039 8.89 21.367 8.89c8.324 0 15.45-2.963 21.363-8.89 5.918-5.927 8.875-13.009 8.875-21.246v-61.315h64.226c20.489 0 37.909-7.175 52.258-21.525s21.525-31.736 21.525-52.16v-571.846c0-20.425-7.177-37.811-21.525-52.16s-31.735-21.525-52.16-21.525h-571.845zM227.387 109.547h571.649c3.324 0 6.374 1.387 9.143 4.16 2.773 2.769 4.16 5.82 4.16 9.143v399.599h-598.255v-399.599c0-3.324 1.385-6.374 4.157-9.143 2.772-2.773 5.821-4.16 9.146-4.16z" />
<glyph unicode="&#xe92d;" glyph-name="calendar_today-outlined" d="M227.289 49.067c-20.424 0-37.811 7.177-52.161 21.525s-21.524 31.735-21.524 52.16v571.846c0 20.425 7.174 37.812 21.524 52.16 14.35 14.35 31.77 21.525 52.259 21.525h64.224v60.484c0 8.515 3.028 15.804 9.083 21.87s13.385 9.098 21.99 9.098c8.605 0 15.934-3.032 21.99-9.098s9.082-13.355 9.082-21.87v-60.484h320.575v61.315c0 8.237 2.957 15.319 8.875 21.246s13.039 8.89 21.367 8.89c8.324 0 15.45-2.963 21.363-8.89 5.918-5.927 8.875-13.009 8.875-21.246v-61.315h64.226c20.489 0 37.909-7.175 52.258-21.525s21.525-31.736 21.525-52.16v-571.846c0-20.425-7.177-37.811-21.525-52.16s-31.735-21.525-52.16-21.525h-571.845zM227.387 109.547h571.649c3.324 0 6.374 1.387 9.143 4.16 2.773 2.769 4.16 5.82 4.16 9.143v399.599h-598.255v-399.599c0-3.324 1.385-6.374 4.157-9.143 2.772-2.773 5.821-4.16 9.146-4.16zM214.085 582.928h598.255v111.571c0 3.326-1.387 6.375-4.16 9.147-2.769 2.771-5.82 4.157-9.143 4.157h-571.649c-3.325 0-6.374-1.385-9.146-4.157s-4.157-5.821-4.157-9.147v-111.571z" />
<glyph unicode="&#xe92e;" glyph-name="card_stack" d="M825.169-6.481l120.597 726.633c6.191 37.375-19.196 72.835-56.585 79.054l-55.586 9.234 0.013 12.591c0.055 37.912-30.746 68.777-68.668 68.819l-56.337 0.055-2.039 12.427c-6.127 37.403-41.527 62.874-78.946 56.764l-484.619-79.219c-37.403-6.111-62.86-41.528-56.764-78.945l118.828-726.913c3.932-24.055 20.058-43.034 40.967-51.964 0.644-0.303 1.37-0.452 2.041-0.725 3.754-1.481 7.645-2.658 11.673-3.456 0.671-0.119 1.233-0.435 1.904-0.546l484.442-80.397c7.428-1.233 14.963-1.233 22.349-0.043 29.129 4.77 51.938 27.546 56.73 56.631zM793.438 84.518c-0.013-16.081-12.864-29.427-29.495-29.44l-246.822 0.316 251.507 41.114c9.097 1.493 17.442 4.77 24.853 9.331l-0.043-21.321zM882.756 760.469c16.004-2.671 26.893-17.879 24.235-33.882l-74.052-446.177 0.593 488.231 49.225-8.172zM764.89 850.578c16.247 0 29.457-13.235 29.444-29.484l-0.538-452.317-78.763 481.885 49.856-0.084zM125.067 807.311c-2.631 16.030 8.289 31.197 24.319 33.827l484.586 79.218c16.030 2.631 31.211-8.289 33.839-24.319l118.814-726.911c2.633-16.030-8.29-31.198-24.32-33.826l-484.583-79.219c-16.030-2.62-31.224 8.286-33.841 24.316l-118.813 726.914zM752.58-24.299l-243.482 40.405 254.852-0.316c3.806 0 7.561 0.316 11.191 0.905 5.222 0.849 10.112 2.453 14.827 4.356l-3.524-21.137c-2.59-15.62-17.958-26.859-33.865-24.213z" />
<glyph unicode="&#xe92f;" glyph-name="change_of_end" d="M681.374 854.627c12.497 12.497 32.755 12.497 45.252 0l192-192c6.003-6.001 9.374-14.141 9.374-22.627s-3.371-16.626-9.374-22.627l-192-191.999c-12.497-12.497-32.755-12.497-45.252 0s-12.497 32.755 0 45.252l137.37 137.374h-498.743c-17.673 0-32 14.327-32 32s14.327 32 32 32h498.743l-137.37 137.373c-12.497 12.497-12.497 32.758 0 45.255zM342.627 470.626c12.497-12.497 12.497-32.755 0-45.252l-137.373-137.374h498.745c17.673 0 32-14.327 32-32s-14.327-32-32-32h-498.745l137.373-137.374c12.497-12.497 12.497-32.755 0-45.252s-32.758-12.497-45.255 0l-192 192c-12.497 12.497-12.497 32.755 0 45.252l192 192c12.497 12.497 32.758 12.497 45.255 0z" />
<glyph unicode="&#xe930;" glyph-name="check_circle-filled" d="M451.447 356.429l-99.121 99.119c-5.907 5.909-13.332 8.93-22.276 9.067s-16.506-2.884-22.687-9.067c-6.181-6.178-9.271-13.675-9.271-22.481s3.090-16.299 9.271-22.481l117.087-117.086c7.712-7.714 16.71-11.571 26.997-11.571 10.283 0 19.281 3.857 26.991 11.571l237.376 237.372c5.905 5.909 8.93 13.335 9.067 22.278s-2.884 16.506-9.067 22.687c-6.182 6.181-13.675 9.271-22.481 9.271s-16.303-3.090-22.481-9.271l-219.405-219.408zM512.073 42.667c-56.064 0-108.758 10.641-158.086 31.915-49.329 21.278-92.238 50.155-128.727 86.626s-65.378 79.364-86.663 128.67c-21.286 49.306-31.929 101.99-31.929 158.050 0 56.064 10.638 108.758 31.915 158.086s50.151 92.238 86.624 128.727c36.474 36.49 79.364 65.378 128.671 86.663s101.991 31.929 158.051 31.929 108.757-10.638 158.084-31.915c49.331-21.277 92.237-50.151 128.73-86.624 36.489-36.474 65.374-79.364 86.66-128.671s31.932-101.991 31.932-158.051-10.641-108.757-31.915-158.084c-21.278-49.331-50.155-92.237-86.626-128.73-36.471-36.489-79.364-65.374-128.67-86.66s-101.99-31.932-158.050-31.932z" />
<glyph unicode="&#xe931;" glyph-name="check_circle-outlined" d="M451.447 356.429l-99.121 99.119c-5.907 5.909-13.332 8.93-22.276 9.067s-16.506-2.884-22.687-9.067c-6.181-6.178-9.271-13.675-9.271-22.481s3.090-16.299 9.271-22.481l117.087-117.086c7.712-7.714 16.71-11.571 26.997-11.571 10.283 0 19.281 3.857 26.991 11.571l237.376 237.372c5.905 5.909 8.93 13.335 9.067 22.278s-2.884 16.506-9.067 22.687c-6.182 6.181-13.675 9.271-22.481 9.271s-16.303-3.090-22.481-9.271l-219.405-219.408zM512.073 42.667c-56.064 0-108.758 10.641-158.086 31.915-49.329 21.278-92.238 50.155-128.727 86.626s-65.378 79.364-86.663 128.67c-21.286 49.306-31.929 101.99-31.929 158.050 0 56.064 10.638 108.758 31.915 158.086s50.151 92.238 86.624 128.727c36.474 36.49 79.364 65.378 128.671 86.663s101.991 31.929 158.051 31.929 108.757-10.638 158.084-31.915c49.331-21.277 92.237-50.151 128.73-86.624 36.489-36.474 65.374-79.364 86.66-128.671s31.932-101.991 31.932-158.051-10.641-108.757-31.915-158.084c-21.278-49.331-50.155-92.237-86.626-128.73-36.471-36.489-79.364-65.374-128.67-86.66s-101.99-31.932-158.050-31.932zM512 106.667c95.287 0 176 33.067 242.133 99.2s99.2 146.846 99.2 242.133c0 95.29-33.067 176.001-99.2 242.134s-146.846 99.2-242.133 99.2c-95.29 0-176.001-33.067-242.134-99.2s-99.2-146.844-99.2-242.134c0-95.287 33.067-176 99.2-242.133s146.844-99.2 242.134-99.2z" />
<glyph unicode="&#xe932;" glyph-name="check-filled" d="M849.749 762.627c14.707-9.803 18.679-29.671 8.875-44.376l-384-576.001c-5.316-7.974-13.931-13.15-23.471-14.093s-18.999 2.436-25.78 9.216l-256 256c-12.497 12.497-12.497 32.759 0 45.257s32.758 12.497 45.255 0l228.398-228.399 362.351 543.521c9.801 14.705 29.67 18.678 44.373 8.875z" />
<glyph unicode="&#xe933;" glyph-name="check-outlined" d="M849.749 762.627c14.707-9.803 18.679-29.671 8.875-44.376l-384-576.001c-5.316-7.974-13.931-13.15-23.471-14.093s-18.999 2.436-25.78 9.216l-256 256c-12.497 12.497-12.497 32.759 0 45.257s32.758 12.497 45.255 0l228.398-228.399 362.351 543.521c9.801 14.705 29.67 18.678 44.373 8.875z" />
<glyph unicode="&#xe934;" glyph-name="chevron_left-filled" d="M654.882 692.215c14.703-15.287 14.225-39.596-1.062-54.295l-201.613-189.92 201.613-189.922c15.287-14.699 15.765-39.006 1.062-54.293-14.699-15.287-39.006-15.765-54.293-1.062l-230.4 217.6c-7.529 7.236-11.785 17.233-11.785 27.678s4.255 20.442 11.785 27.678l230.4 217.602c15.287 14.699 39.595 14.223 54.293-1.065z" />
<glyph unicode="&#xe935;" glyph-name="chevron_left-outlined" d="M654.882 692.215c14.703-15.287 14.225-39.596-1.062-54.295l-201.613-189.92 201.613-189.922c15.287-14.699 15.765-39.006 1.062-54.293-14.699-15.287-39.006-15.765-54.293-1.062l-230.4 217.6c-7.529 7.236-11.785 17.233-11.785 27.678s4.255 20.442 11.785 27.678l230.4 217.602c15.287 14.699 39.595 14.223 54.293-1.065z" />
<glyph unicode="&#xe936;" glyph-name="chevron_right-filled" d="M369.126 203.785c-14.7 15.287-14.223 39.595 1.065 54.298l201.611 189.918-201.611 189.92c-15.287 14.699-15.764 39.008-1.065 54.295s39.008 15.764 54.295 1.065l230.398-217.602c7.531-7.236 11.785-17.233 11.785-27.678s-4.254-20.442-11.785-27.678l-230.398-217.6c-15.287-14.703-39.596-14.225-54.295 1.062z" />
<glyph unicode="&#xe937;" glyph-name="chevron_right-outlined" d="M369.126 203.785c-14.7 15.287-14.223 39.595 1.065 54.298l201.611 189.918-201.611 189.92c-15.287 14.699-15.764 39.008-1.065 54.295s39.008 15.764 54.295 1.065l230.398-217.602c7.531-7.236 11.785-17.233 11.785-27.678s-4.254-20.442-11.785-27.678l-230.398-217.6c-15.287-14.703-39.596-14.225-54.295 1.062z" />
<glyph unicode="&#xe938;" glyph-name="close-filled" d="M223.053 736.947c12.96 12.96 33.971 12.96 46.931 0l242.016-242.018 242.018 242.018c12.958 12.96 33.971 12.96 46.929 0s12.958-33.971 0-46.931l-242.018-242.016 242.018-242.018c12.958-12.958 12.958-33.971 0-46.929s-33.971-12.958-46.929 0l-242.018 242.018-242.016-242.018c-12.96-12.958-33.971-12.958-46.931 0s-12.96 33.971 0 46.929l242.018 242.018-242.018 242.016c-12.96 12.96-12.96 33.971 0 46.931z" />
<glyph unicode="&#xe939;" glyph-name="close-outlined" d="M223.053 736.947c12.96 12.96 33.971 12.96 46.931 0l242.016-242.018 242.018 242.018c12.958 12.96 33.971 12.96 46.929 0s12.958-33.971 0-46.931l-242.018-242.016 242.018-242.018c12.958-12.958 12.958-33.971 0-46.929s-33.971-12.958-46.929 0l-242.018 242.018-242.016-242.018c-12.96-12.958-33.971-12.958-46.931 0s-12.96 33.971 0 46.929l242.018 242.018-242.018 242.016c-12.96 12.96-12.96 33.971 0 46.931z" />
<glyph unicode="&#xe93a;" glyph-name="commentary_boundaries" horiz-adv-x="1237" d="M987.644 226.304c-25.485 0-48.781 4.578-69.888 13.739-20.706 9.161-38.626 22.899-53.76 41.216-14.733 18.718-26.283 41.813-34.645 69.291-8.363 27.874-12.544 60.331-12.544 97.365 0 39.027 4.979 73.271 14.933 102.741 10.355 29.469 24.094 54.158 41.216 74.069 17.523 19.911 37.833 34.845 60.928 44.8 23.497 10.354 48.188 15.531 74.069 15.531 25.088 0 47.39-3.783 66.901-11.349 19.516-7.168 35.243-15.331 47.189-24.491l-35.84-54.955c-10.351 7.168-22.101 13.141-35.243 17.92-13.141 5.177-28.471 7.765-45.995 7.765-16.725 0-32.055-3.584-45.995-10.752-13.538-7.168-25.284-17.323-35.243-30.464-9.954-13.141-17.92-29.070-23.893-47.787-5.572-18.718-8.759-39.625-9.557-62.72 15.134 13.538 32.256 24.887 51.371 34.048s40.819 13.739 65.109 13.739c21.107 0 40.222-2.987 57.344-8.96 17.523-5.973 32.457-14.933 44.8-26.88 12.348-11.55 21.905-26.082 28.672-43.605 6.771-17.122 10.155-37.035 10.155-59.733 0-22.302-4.181-42.807-12.544-61.525-8.363-18.317-19.908-34.048-34.645-47.189-14.336-13.141-31.258-23.497-50.773-31.061-19.511-7.168-40.218-10.752-62.123-10.752zM991.228 289.621c27.081 0 47.987 7.565 62.72 22.699 15.134 15.134 22.699 35.84 22.699 62.123 0 11.55-1.591 22.101-4.779 31.659-2.786 9.954-7.565 18.317-14.336 25.088-6.37 7.168-14.933 12.745-25.685 16.725-10.351 3.981-23.296 5.973-38.827 5.973-21.103 0-41.015-4.382-59.733-13.141-18.714-8.759-32.853-18.914-42.411-30.464 2.79-42.611 13.141-73.472 31.061-92.587 18.321-18.718 41.417-28.075 69.291-28.075zM443.153 234.667l256.853 442.027h75.861l-256.853-442.027h-75.861zM272.040 234.667v90.795h-215.040v58.539l201.301 292.693h86.016v-286.72h74.667v-64.512h-74.667v-90.795h-72.277zM137.64 389.973h134.4v197.717h-1.195l-133.205-197.717z" />
<glyph unicode="&#xe93b;" glyph-name="content_copy-filled" d="M429.129 213.333c-21.554 0-39.797 7.467-54.729 22.4s-22.4 33.178-22.4 54.729v485.743c0 21.552 7.467 39.795 22.4 54.729s33.175 22.4 54.729 22.4h357.739c21.551 0 39.795-7.467 54.729-22.4s22.4-33.176 22.4-54.729v-485.743c0-21.551-7.467-39.795-22.4-54.729s-33.178-22.4-54.729-22.4h-357.739zM279.794 64.004c-21.552 0-39.794 7.467-54.728 22.4s-22.4 33.178-22.4 54.729v517.74c0 9.080 3.063 16.684 9.19 22.81s13.73 9.19 22.81 9.19c9.080 0 16.684-3.063 22.81-9.19s9.19-13.729 9.19-22.81v-517.74c0-3.285 1.367-6.293 4.102-9.028s5.744-4.105 9.026-4.105h389.74c9.079 0 16.683-3.059 22.81-9.186s9.19-13.73 9.19-22.81c0-9.079-3.063-16.683-9.19-22.81s-13.73-9.19-22.81-9.19h-389.74z" />
<glyph unicode="&#xe93c;" glyph-name="content_copy-outlined" d="M429.129 213.333c-21.554 0-39.797 7.467-54.729 22.4s-22.4 33.178-22.4 54.729v485.743c0 21.552 7.467 39.795 22.4 54.729s33.175 22.4 54.729 22.4h357.739c21.551 0 39.795-7.467 54.729-22.4s22.4-33.176 22.4-54.729v-485.743c0-21.551-7.467-39.795-22.4-54.729s-33.178-22.4-54.729-22.4h-357.739zM429.129 277.333h357.739c3.281 0 6.293 1.37 9.028 4.105s4.1 5.743 4.1 9.024v485.743c0 3.282-1.365 6.292-4.1 9.027s-5.747 4.102-9.028 4.102h-357.739c-3.284 0-6.293-1.367-9.028-4.102s-4.104-5.745-4.104-9.027v-485.743c0-3.281 1.368-6.289 4.104-9.024s5.744-4.105 9.028-4.105zM279.794 64.004c-21.552 0-39.794 7.467-54.728 22.4s-22.4 33.178-22.4 54.729v517.74c0 9.080 3.063 16.684 9.19 22.81s13.73 9.19 22.81 9.19c9.080 0 16.684-3.063 22.81-9.19s9.19-13.729 9.19-22.81v-517.74c0-3.285 1.367-6.293 4.102-9.028s5.744-4.105 9.026-4.105h389.74c9.079 0 16.683-3.059 22.81-9.186s9.19-13.73 9.19-22.81c0-9.079-3.063-16.683-9.19-22.81s-13.73-9.19-22.81-9.19h-389.74z" />
<glyph unicode="&#xe93d;" glyph-name="cricket_ball-filled" d="M512 42.667c223.859 0 405.333 181.474 405.333 405.333 0 100.522-36.591 192.498-97.182 263.334-11.563-1.666-23.027-3.624-34.389-5.866-13.359-2.637-26.577-5.668-39.642-9.080-235.541-61.519-420.989-246.967-482.508-482.508-3.412-13.065-6.443-26.283-9.080-39.642-2.243-11.362-4.201-22.827-5.866-34.389 70.836-60.591 162.811-97.182 263.334-97.182zM204.292 184.149c56.806 287.915 283.644 514.753 571.559 571.559-70.908 60.855-163.085 97.625-263.851 97.625-223.86 0-405.333-181.474-405.333-405.333 0-100.766 36.77-192.943 97.625-263.851z" />
<glyph unicode="&#xe93e;" glyph-name="cricket_ball-outlined" d="M512 102.4c-190.87 0-345.6 154.731-345.6 345.6s154.73 345.6 345.6 345.6c190.869 0 345.6-154.73 345.6-345.6s-154.731-345.6-345.6-345.6zM512 42.667c223.859 0 405.333 181.474 405.333 405.333s-181.474 405.333-405.333 405.333c-223.86 0-405.333-181.474-405.333-405.333s181.474-405.333 405.333-405.333zM271.741 199.607c58.032 240.947 247.691 430.609 488.638 488.64-17.993 18.778-38.080 35.529-59.895 49.877-227.964-70.732-407.887-250.654-478.62-478.622 14.348-21.811 31.099-41.903 49.877-59.895z" />
<glyph unicode="&#xe93f;" glyph-name="dark_mode-filled" d="M406.545 886.71c9.173-9.173 11.901-22.978 6.904-34.95-18.961-45.441-29.449-95.335-29.449-147.76 0-212.079 171.921-384 384-384 52.425 0 102.319 10.487 147.759 29.449 11.972 4.996 25.779 2.27 34.953-6.903s11.9-22.98 6.903-34.953c-67.511-161.788-227.234-275.593-413.615-275.593-247.424 0-448 200.576-448 448 0 186.38 113.807 346.105 275.594 413.615 11.973 4.996 25.777 2.269 34.95-6.905z" />
<glyph unicode="&#xe940;" glyph-name="dark_mode-outlined" d="M406.545 886.71c9.173-9.173 11.901-22.978 6.904-34.95-18.961-45.441-29.449-95.335-29.449-147.76 0-212.079 171.921-384 384-384 52.425 0 102.319 10.487 147.759 29.449 11.972 4.996 25.779 2.27 34.953-6.903s11.9-22.98 6.903-34.953c-67.511-161.788-227.234-275.593-413.615-275.593-247.424 0-448 200.576-448 448 0 186.38 113.807 346.105 275.594 413.615 11.973 4.996 25.777 2.269 34.95-6.905zM330.091 798.958c-102.618-68.959-170.091-186.105-170.091-318.958 0-212.079 171.923-384 384-384 132.851 0 250.001 67.473 318.959 170.091-30.622-6.613-62.396-10.091-94.959-10.091-247.424 0-448 200.576-448 448 0 32.562 3.479 64.335 10.091 94.958z" />
<glyph unicode="&#xe941;" glyph-name="delete-filled" d="M664.384 723.084v-8.294c34.918-3.197 69.542-7.4 103.851-12.581 12.702-1.918 25.361-3.971 37.973-6.156 14.929-2.586 24.93-16.782 22.345-31.708s-16.781-24.93-31.706-22.345c-2.547 0.441-5.094 0.876-7.642 1.306l-36.77-478.008c-4.399-57.161-52.062-101.299-109.393-101.299h-286.458c-57.329 0-104.994 44.139-109.391 101.299l-36.77 478.008c-2.549-0.43-5.097-0.865-7.642-1.306-14.926-2.586-29.122 7.418-31.708 22.345s7.418 29.122 22.345 31.708c12.614 2.185 25.272 4.237 37.975 6.156 34.307 5.181 68.934 9.384 103.85 12.581v8.294c0 57.215 44.344 106.057 102.965 107.933 20.454 0.654 40.994 0.984 61.606 0.984s41.152-0.33 61.606-0.984c58.62-1.875 102.963-50.718 102.963-107.933zM439.962 776.187c19.87 0.636 39.825 0.956 59.853 0.956s39.979-0.32 59.853-0.956c27.597-0.883 49.86-24.056 49.86-53.103v-4.119c-36.292 2.204-72.875 3.322-109.713 3.322s-73.423-1.118-109.715-3.322v4.119c0 29.047 22.264 52.221 49.862 53.103zM426.987 558.769c-0.583 15.137-13.326 26.936-28.463 26.354s-26.936-13.325-26.354-28.463l12.66-329.144c0.582-15.134 13.325-26.935 28.462-26.351 15.138 0.58 26.935 13.325 26.355 28.463l-12.659 329.141zM627.426 556.66c0.58 15.137-11.217 27.881-26.355 28.463s-27.878-11.217-28.463-26.354l-12.659-329.141c-0.58-15.138 11.217-27.883 26.355-28.463 15.138-0.585 27.878 11.217 28.463 26.351l12.659 329.144z" />
<glyph unicode="&#xe942;" glyph-name="delete-outlined" d="M499.814 777.143c20.028 0 39.979-0.32 59.853-0.956 27.597-0.883 49.86-24.056 49.86-53.103v-4.119c-36.292 2.204-72.875 3.322-109.713 3.322s-73.423-1.118-109.715-3.322v4.119c0 29.047 22.264 52.221 49.862 53.103 19.87 0.636 39.825 0.956 59.853 0.956zM664.384 714.79c34.918-3.197 69.542-7.4 103.851-12.581 12.702-1.918 25.361-3.971 37.973-6.156 14.929-2.586 24.93-16.782 22.345-31.708s-16.781-24.93-31.706-22.345c-2.547 0.441-5.094 0.876-7.642 1.306l-36.77-478.008c-4.399-57.161-52.062-101.299-109.393-101.299h-286.458c-57.329 0-104.994 44.139-109.391 101.299l-36.77 478.008c-2.549-0.43-5.097-0.865-7.642-1.306-14.926-2.586-29.122 7.418-31.708 22.345s7.418 29.122 22.345 31.708c12.614 2.185 25.272 4.237 37.975 6.156 34.307 5.181 68.934 9.384 103.85 12.581v8.294c0 57.215 44.344 106.057 102.965 107.933 20.454 0.654 40.994 0.984 61.606 0.984s41.152-0.33 61.606-0.984c58.62-1.875 102.963-50.718 102.963-107.933v-8.294zM734.822 651.585c-33.037 4.492-66.372 8.050-99.981 10.647-44.553 3.443-89.583 5.197-135.027 5.197s-90.477-1.754-135.030-5.197c-33.606-2.597-66.941-6.155-99.978-10.647l37.083-482.079c2.199-28.578 26.031-50.65 54.696-50.65h286.458c28.668 0 52.497 22.071 54.699 50.65l37.082 482.079zM398.54 585.123c-15.137-0.582-26.936-13.325-26.354-28.463l12.659-329.144c0.582-15.134 13.325-26.935 28.463-26.351 15.138 0.58 26.935 13.325 26.355 28.459l-12.659 329.145c-0.583 15.137-13.327 26.936-28.464 26.354zM601.088 585.123c-15.138 0.582-27.878-11.217-28.463-26.354l-12.659-329.145c-0.58-15.134 11.217-27.878 26.355-28.459 15.138-0.585 27.878 11.217 28.463 26.351l12.659 329.144c0.58 15.137-11.217 27.881-26.355 28.463z" />
<glyph unicode="&#xe943;" glyph-name="dot_circular" d="M725.333 448c0-117.821-95.513-213.333-213.333-213.333s-213.333 95.513-213.333 213.333c0 117.821 95.513 213.333 213.333 213.333s213.333-95.513 213.333-213.333z" />
<glyph unicode="&#xe944;" glyph-name="dot_diamond" d="M514.999 586.417l-149.249-147.752 149.249-149.248 147.75 149.248-147.75 147.752z" />
<glyph unicode="&#xe945;" glyph-name="dropped-catch" d="M753.882 624.071l-79.825-15.35c-9.98-1.537-20.727-1.537-30.699 0-142.771 29.935-148.911 29.935-155.051 29.935-20.727 0-37.615-6.907-50.662-28.399-13.050-21.498-82.129-140.468-82.129-140.468-15.35-26.095-12.282-58.334 7.678-81.361l9.98-11.511-33.775-54.502c-3.839-6.908-9.98-12.279-16.887-16.119l-122.816-72.154c-19.956-11.511-26.868-37.615-15.35-58.338 7.678-13.811 22.257-20.723 36.843-20.723 6.907 0 14.585 1.536 21.492 6.14l122.816 72.154c18.423 10.748 34.54 26.867 46.057 45.286l20.728 33.003 30.699-34.539-46.057-137.395c-7.678-22.259 4.605-46.059 26.866-53.73 4.608-1.536 9.212-2.304 13.815-2.304 17.651 0 34.539 11.511 40.683 29.171l49.126 146.607c7.676 23.795 2.3 49.126-13.815 67.55l-53.73 59.87 99.789 160.424c14.583-3.068 31.471-6.141 49.89-9.98 19.187-3.839 39.142-3.839 59.102-0.765l79.061 14.585c19.955 3.839 33.003 23.029 29.171 42.983-3.844 19.956-23.036 33.003-42.995 29.935l-0.004-0.003zM571.584 811.823c45.094-4.905 77.67-45.441 72.759-90.529-4.902-45.092-45.44-77.668-90.534-72.764-45.090 4.91-77.662 45.441-72.759 90.535 4.911 45.092 45.444 77.668 90.534 72.758zM845.231 416.738c0-22.046-17.865-39.915-39.91-39.915s-39.915 17.869-39.915 39.915c0 22.042 17.869 39.915 39.915 39.915s39.91-17.873 39.91-39.915z" />
<glyph unicode="&#xe946;" glyph-name="email-filled" d="M64 590.118v-366.118c0-70.694 57.308-128 128-128h640c70.694 0 128 57.306 128 128v366.118l-380.915-234.411c-41.139-25.314-93.030-25.314-134.17 0l-380.915 234.411zM960 665.266v6.734c0 70.692-57.306 128-128 128h-640c-70.692 0-128-57.308-128-128v-6.734l414.46-255.052c20.57-12.659 46.511-12.659 67.081 0l414.46 255.052z" />
<glyph unicode="&#xe947;" glyph-name="email-outlined" d="M64 672c0 70.692 57.308 128 128 128h640c70.694 0 128-57.308 128-128v-448c0-70.694-57.306-128-128-128h-640c-70.692 0-128 57.306-128 128v448zM128 672v-10.356c0-22.225 11.53-42.858 30.458-54.506l320.002-196.924c20.57-12.659 46.511-12.659 67.081 0l320 196.924c18.931 11.648 30.46 32.282 30.46 54.506v10.356c0 35.346-28.655 64-64 64h-640c-35.346 0-64-28.654-64-64zM896 550.734l-316.915-195.026c-41.139-25.314-93.030-25.314-134.17 0l-316.915 195.026v-326.734c0-35.345 28.654-64 64-64h640c35.345 0 64 28.655 64 64v326.734z" />
<glyph unicode="&#xe948;" glyph-name="emoji_events-filled" d="M262.121 471.962v172.093h-97.661c-4.713 0-8.585-1.515-11.614-4.545s-4.545-6.902-4.545-11.615v-15.349c0-34.001 10.672-64.064 32.015-90.189 21.344-26.121 48.612-42.918 81.805-50.394zM719.211 471.962c33.195 7.475 60.463 24.273 81.805 50.394 21.346 26.126 32.017 56.189 32.017 90.189v15.349c0 4.713-1.515 8.585-4.544 11.615s-6.903 4.545-11.614 4.545h-97.664v-172.093zM459.311 84.301v183.151c-39.215 3.563-74.284 16.947-105.208 40.162-30.924 23.219-53.116 53.308-66.577 90.27-56.372 6.81-104.164 30.020-143.375 69.636s-58.817 87.081-58.817 142.399v17.975c0 21.844 7.727 40.493 23.18 55.947s34.103 23.181 55.947 23.181h97.661v45.852c0 21.844 7.727 40.493 23.181 55.947s34.103 23.18 55.947 23.18h298.837c21.845 0 40.495-7.727 55.945-23.18 15.454-15.454 23.181-34.103 23.181-55.947v-45.852h97.664c21.841 0 40.491-7.727 55.945-23.181s23.181-34.103 23.181-55.947v-15.349c0-55.988-19.605-104.043-58.816-144.158s-86.886-63.616-143.027-70.502c-13.692-36.962-36.011-67.059-66.948-90.287s-65.916-36.591-104.934-40.081v-183.215h144.674c8.713 0 16.158-3.072 22.34-9.212 6.178-6.14 9.271-13.431 9.271-21.871 0-8.631-3.093-16.107-9.271-22.417-6.182-6.31-13.628-9.468-22.34-9.468h-352.563c-8.713 0-16.117 3.081-22.213 9.246s-9.145 13.483-9.145 21.961c0 8.478 3.048 15.889 9.145 22.238s13.501 9.523 22.213 9.523h144.926z" />
<glyph unicode="&#xe949;" glyph-name="emoji_events-outlined" d="M480.644 84.301v183.151c-39.215 3.563-74.284 16.947-105.208 40.162-30.924 23.219-53.116 53.308-66.577 90.27-56.372 6.805-104.164 30.020-143.375 69.636s-58.817 87.081-58.817 142.399v17.975c0 21.76 7.748 40.388 23.244 55.884 15.495 15.496 34.122 23.244 55.883 23.244h97.661v45.852c0 21.76 7.748 40.388 23.244 55.884s34.124 23.242 55.884 23.242h298.837c21.76 0 40.388-7.747 55.885-23.242s23.241-34.124 23.241-55.884v-45.852h97.664c21.76 0 40.388-7.748 55.885-23.244 15.492-15.496 23.241-34.124 23.241-55.884v-15.349c0-55.988-19.605-104.043-58.816-144.158s-86.886-63.616-143.027-70.502c-13.692-36.962-36.011-67.059-66.948-90.287s-65.916-36.591-104.93-40.081v-183.215h144.67c8.695 0 16.137-3.076 22.327-9.229 6.187-6.153 9.284-13.444 9.284-21.871 0-8.623-3.098-16.090-9.284-22.4-6.191-6.31-13.632-9.468-22.327-9.468h-352.563c-8.695 0-16.095 3.089-22.2 9.263-6.105 6.178-9.158 13.495-9.158 21.961s3.053 15.872 9.158 22.221c6.105 6.349 13.505 9.523 22.2 9.523h144.926zM283.454 471.962v172.093h-97.661c-4.713 0-8.585-1.515-11.614-4.545s-4.545-6.902-4.545-11.615v-15.349c0-33.665 10.63-63.643 31.888-89.933s48.57-43.174 81.932-50.65zM512.043 327.189c45.726 0 84.578 16 116.557 48 31.979 31.996 47.97 70.852 47.97 116.57v261.114c0 4.713-1.515 8.585-4.544 11.614-3.034 3.030-6.903 4.545-11.618 4.545h-296.816c-4.713 0-8.585-1.515-11.615-4.545s-4.545-6.901-4.545-11.614v-261.114c0-45.717 16.004-84.574 48.012-116.57 32.009-32 70.874-48 116.6-48zM740.544 471.962c33.365 7.475 60.676 24.358 81.933 50.65 21.261 26.29 31.889 56.268 31.889 89.933v15.349c0 4.713-1.515 8.585-4.544 11.615s-6.903 4.545-11.614 4.545h-97.664v-172.093z" />
<glyph unicode="&#xe94a;" glyph-name="equalizer-filled" d="M226.462 85.333c-21.552 0-39.795 7.467-54.729 22.4s-22.4 33.178-22.4 54.729v571.076c0 21.552 7.467 39.795 22.4 54.729s33.176 22.4 54.729 22.4h571.072c21.555 0 39.799-7.467 54.733-22.4s22.4-33.176 22.4-54.729v-571.076c0-21.551-7.467-39.795-22.4-54.729s-33.178-22.4-54.733-22.4h-571.072zM346.241 522.667c-9.070 0-16.668-3.068-22.794-9.199-6.127-6.135-9.19-13.734-9.19-22.801v-213.333c0-9.067 3.068-16.666 9.204-22.797 6.136-6.135 13.74-9.203 22.81-9.203s16.669 3.068 22.796 9.203c6.126 6.131 9.189 13.73 9.189 22.797v213.333c0 9.067-3.068 16.666-9.204 22.801-6.135 6.131-13.739 9.199-22.81 9.199zM511.987 650.667c-9.071 0-16.67-3.066-22.797-9.199s-9.19-13.734-9.19-22.8v-341.334c0-9.067 3.068-16.666 9.203-22.797 6.135-6.135 13.739-9.203 22.81-9.203s16.67 3.068 22.797 9.203c6.127 6.131 9.19 13.73 9.19 22.797v341.334c0 9.067-3.068 16.667-9.203 22.8-6.14 6.132-13.743 9.199-22.81 9.199zM677.73 394.667c-9.071 0-16.67-3.068-22.797-9.199-6.127-6.135-9.19-13.734-9.19-22.801v-85.333c0-9.067 3.068-16.666 9.203-22.797 6.135-6.135 13.739-9.203 22.81-9.203s16.67 3.068 22.797 9.203c6.127 6.131 9.19 13.73 9.19 22.797v85.333c0 9.067-3.068 16.666-9.203 22.801-6.14 6.131-13.743 9.199-22.81 9.199z" />
<glyph unicode="&#xe94b;" glyph-name="equalizer-outlined" d="M226.462 85.333c-21.552 0-39.795 7.467-54.729 22.4s-22.4 33.178-22.4 54.729v571.076c0 21.552 7.467 39.795 22.4 54.729s33.176 22.4 54.729 22.4h571.072c21.555 0 39.799-7.467 54.733-22.4s22.4-33.176 22.4-54.729v-571.076c0-21.551-7.467-39.795-22.4-54.729s-33.178-22.4-54.733-22.4h-571.072zM226.462 149.333h571.072c3.285 0 6.293 1.37 9.028 4.105s4.105 5.743 4.105 9.024v571.076c0 3.282-1.37 6.292-4.105 9.027s-5.743 4.102-9.028 4.102h-571.072c-3.282 0-6.292-1.367-9.027-4.102s-4.102-5.745-4.102-9.027v-571.076c0-3.281 1.367-6.289 4.102-9.024s5.745-4.105 9.027-4.105zM346.256 522.667c-9.080 0-16.684-3.063-22.81-9.19s-9.19-13.73-9.19-22.81v-213.333c0-9.079 3.063-16.683 9.19-22.81s13.729-9.19 22.81-9.19c9.080 0 16.683 3.063 22.81 9.19s9.189 13.73 9.189 22.81v213.333c0 9.079-3.063 16.683-9.189 22.81s-13.73 9.19-22.81 9.19zM512 650.667c-9.079 0-16.683-3.063-22.81-9.19s-9.19-13.729-9.19-22.81v-341.334c0-9.079 3.063-16.683 9.19-22.81s13.73-9.19 22.81-9.19c9.079 0 16.683 3.063 22.81 9.19s9.19 13.73 9.19 22.81v341.334c0 9.080-3.063 16.684-9.19 22.81s-13.73 9.19-22.81 9.19zM677.743 394.667c-9.079 0-16.683-3.063-22.81-9.19s-9.19-13.73-9.19-22.81v-85.333c0-9.079 3.063-16.683 9.19-22.81s13.73-9.19 22.81-9.19c9.079 0 16.683 3.063 22.81 9.19s9.19 13.73 9.19 22.81v85.333c0 9.079-3.063 16.683-9.19 22.81s-13.73 9.19-22.81 9.19z" />
<glyph unicode="&#xe94c;" glyph-name="event_add_calendar" d="M167.462 64.93c14.933-14.844 33.176-22.263 54.729-22.263h571.076c21.551 0 39.795 7.42 54.729 22.263s22.4 32.977 22.4 54.4v567.628c0 21.423-7.467 39.555-22.4 54.399s-33.178 22.265-54.729 22.265h-59.081v57.905c0 9.025-3.063 16.583-9.19 22.672s-13.73 9.134-22.81 9.134c-9.079 0-16.683-3.045-22.81-9.134s-9.186-13.647-9.186-22.672v-57.905h-323.283v57.090c0 9.297-3.131 17.058-9.394 23.284s-14.072 9.338-23.425 9.338c-9.354 0-17.162-3.113-23.425-9.338s-9.395-13.987-9.395-23.284v-57.090h-59.078c-21.552 0-39.795-7.422-54.729-22.265s-22.4-32.976-22.4-54.399v-567.628c0-21.423 7.467-39.556 22.4-54.4zM793.267 106.278h-571.076c-3.282 0-6.292 1.361-9.027 4.079s-4.102 5.709-4.102 8.973v397.99h597.334v-397.99c0-3.264-1.37-6.255-4.105-8.973s-5.743-4.079-9.024-4.079zM806.396 580.934h-597.334v106.024c0 3.263 1.367 6.254 4.102 8.973s5.745 4.078 9.027 4.078h571.076c3.281 0 6.289-1.359 9.024-4.078s4.105-5.71 4.105-8.973v-106.024zM507.733 456.533c16.495 0 29.867-13.372 29.867-29.867v-89.6h85.333c16.495 0 29.867-13.372 29.867-29.867s-13.372-29.867-29.867-29.867h-85.333v-85.333c0-16.495-13.372-29.867-29.867-29.867s-29.867 13.372-29.867 29.867v85.333h-85.333c-16.495 0-29.867 13.372-29.867 29.867s13.372 29.867 29.867 29.867h85.333v89.6c0 16.495 13.372 29.867 29.867 29.867z" />
<glyph unicode="&#xe94d;" glyph-name="event_available-filled" d="M467.2 285.21l156.881 156.881c6.345 6.345 13.99 9.587 22.933 9.724s16.725-3.102 23.343-9.724c6.618-6.618 9.929-14.332 9.929-23.138s-3.311-16.516-9.929-23.134l-176.162-176.166c-7.714-7.714-16.713-11.567-26.995-11.567s-19.281 3.853-26.995 11.567l-86.564 86.566c-6.345 6.345-9.586 13.986-9.722 22.929s3.104 16.725 9.722 23.343c6.618 6.622 14.331 9.929 23.138 9.929s16.519-3.307 23.137-9.929l67.284-67.281zM226.462 42.667c-21.552 0-39.795 7.467-54.729 22.4s-22.4 33.178-22.4 54.729v571.075c0 21.552 7.467 39.795 22.4 54.729s33.176 22.4 54.729 22.4h59.078v57.437c0 9.353 3.132 17.161 9.395 23.425s14.071 9.394 23.425 9.394c9.353 0 17.162-3.132 23.425-9.394s9.394-14.072 9.394-23.425v-57.437h323.283v58.257c0 9.080 3.059 16.684 9.186 22.81s13.73 9.19 22.81 9.19c9.079 0 16.683-3.063 22.81-9.19s9.19-13.729 9.19-22.81v-58.257h59.076c21.555 0 39.799-7.467 54.733-22.4s22.4-33.176 22.4-54.729v-571.075c0-21.551-7.467-39.795-22.4-54.729s-33.178-22.4-54.733-22.4h-571.072zM226.462 106.667h571.072c3.285 0 6.293 1.37 9.028 4.105s4.105 5.743 4.105 9.024v400.41h-597.335v-400.41c0-3.281 1.367-6.289 4.102-9.024s5.745-4.105 9.027-4.105z" />
<glyph unicode="&#xe94e;" glyph-name="event_available-outlined" d="M467.2 285.21l156.881 156.881c6.345 6.345 13.99 9.587 22.933 9.724s16.725-3.102 23.343-9.724c6.618-6.618 9.929-14.332 9.929-23.138s-3.311-16.516-9.929-23.134l-176.162-176.166c-7.714-7.714-16.713-11.567-26.995-11.567s-19.281 3.853-26.995 11.567l-86.564 86.566c-6.345 6.345-9.586 13.986-9.722 22.929s3.104 16.725 9.722 23.343c6.618 6.622 14.331 9.929 23.138 9.929s16.519-3.307 23.137-9.929l67.284-67.281zM226.462 42.667c-21.552 0-39.795 7.467-54.729 22.4s-22.4 33.178-22.4 54.729v571.075c0 21.552 7.467 39.795 22.4 54.729s33.176 22.4 54.729 22.4h59.078v57.437c0 9.353 3.132 17.161 9.395 23.425s14.071 9.394 23.425 9.394c9.353 0 17.162-3.132 23.425-9.394s9.394-14.072 9.394-23.425v-57.437h323.283v58.257c0 9.080 3.059 16.684 9.186 22.81s13.73 9.19 22.81 9.19c9.079 0 16.683-3.063 22.81-9.19s9.19-13.729 9.19-22.81v-58.257h59.076c21.555 0 39.799-7.467 54.733-22.4s22.4-33.176 22.4-54.729v-571.075c0-21.551-7.467-39.795-22.4-54.729s-33.178-22.4-54.733-22.4h-571.072zM226.462 106.667h571.072c3.285 0 6.293 1.37 9.028 4.105s4.105 5.743 4.105 9.024v400.41h-597.335v-400.41c0-3.281 1.367-6.289 4.102-9.024s5.745-4.105 9.027-4.105zM213.332 584.203h597.335v106.668c0 3.282-1.37 6.292-4.105 9.027s-5.743 4.102-9.028 4.102h-571.072c-3.282 0-6.292-1.367-9.027-4.102s-4.102-5.745-4.102-9.027v-106.668z" />
<glyph unicode="&#xe94f;" glyph-name="event_note-filled" d="M226.462 42.667c-21.552 0-39.795 7.467-54.729 22.4s-22.4 33.178-22.4 54.729v571.075c0 21.552 7.467 39.795 22.4 54.729s33.176 22.4 54.729 22.4h59.078v57.437c0 9.298 3.151 17.093 9.453 23.383s14.109 9.436 23.425 9.436c9.315 0 17.104-3.145 23.368-9.436s9.394-14.085 9.394-23.383v-57.437h323.283v58.257c0 9.067 3.068 16.667 9.203 22.8s13.739 9.199 22.81 9.199c9.071 0 16.666-3.066 22.793-9.199s9.19-13.734 9.19-22.8v-58.257h59.076c21.555 0 39.799-7.467 54.733-22.4s22.4-33.176 22.4-54.729v-571.075c0-21.551-7.467-39.795-22.4-54.729s-33.178-22.4-54.733-22.4h-571.072zM226.462 106.667h571.072c3.285 0 6.293 1.37 9.028 4.105s4.105 5.743 4.105 9.024v400.41h-597.335v-400.41c0-3.281 1.367-6.289 4.102-9.024s5.745-4.105 9.027-4.105zM341.332 373.333c-9.067 0-16.666 3.068-22.799 9.203s-9.2 13.739-9.2 22.81c0 9.071 3.067 16.67 9.2 22.797s13.732 9.19 22.799 9.19h341.334c9.067 0 16.666-3.068 22.801-9.203 6.131-6.135 9.199-13.739 9.199-22.81s-3.068-16.67-9.199-22.797c-6.135-6.127-13.734-9.19-22.801-9.19h-341.334zM341.332 202.667c-9.067 0-16.666 3.068-22.799 9.203s-9.2 13.739-9.2 22.81c0 9.071 3.067 16.67 9.2 22.797s13.732 9.19 22.799 9.19h213.334c9.067 0 16.666-3.068 22.801-9.203 6.131-6.135 9.199-13.739 9.199-22.81s-3.068-16.67-9.199-22.797c-6.135-6.127-13.734-9.19-22.801-9.19h-213.334z" />
<glyph unicode="&#xe950;" glyph-name="event_note-outlined" d="M226.462 42.667c-21.552 0-39.795 7.467-54.729 22.4s-22.4 33.178-22.4 54.729v571.075c0 21.552 7.467 39.795 22.4 54.729s33.176 22.4 54.729 22.4h59.078v57.437c0 9.353 3.132 17.161 9.395 23.425s14.071 9.394 23.425 9.394c9.353 0 17.162-3.132 23.425-9.394s9.394-14.072 9.394-23.425v-57.437h323.283v58.257c0 9.080 3.059 16.684 9.186 22.81s13.73 9.19 22.81 9.19c9.079 0 16.683-3.063 22.81-9.19s9.19-13.729 9.19-22.81v-58.257h59.076c21.555 0 39.799-7.467 54.733-22.4s22.4-33.176 22.4-54.729v-571.075c0-21.551-7.467-39.795-22.4-54.729s-33.178-22.4-54.733-22.4h-571.072zM226.462 106.667h571.072c3.285 0 6.293 1.37 9.028 4.105s4.105 5.743 4.105 9.024v400.41h-597.335v-400.41c0-3.281 1.367-6.289 4.102-9.024s5.745-4.105 9.027-4.105zM213.332 584.203h597.335v106.668c0 3.282-1.37 6.292-4.105 9.027s-5.743 4.102-9.028 4.102h-571.072c-3.282 0-6.292-1.367-9.027-4.102s-4.102-5.745-4.102-9.027v-106.668zM341.332 373.333c-9.080 0-16.684 3.063-22.81 9.19s-9.19 13.73-9.19 22.81c0 9.079 3.063 16.683 9.19 22.81s13.729 9.19 22.81 9.19h341.334c9.079 0 16.683-3.063 22.81-9.19s9.19-13.73 9.19-22.81c0-9.079-3.063-16.683-9.19-22.81s-13.73-9.19-22.81-9.19h-341.334zM341.332 202.667c-9.080 0-16.684 3.063-22.81 9.19s-9.19 13.73-9.19 22.81c0 9.079 3.063 16.683 9.19 22.81s13.729 9.19 22.81 9.19h213.334c9.079 0 16.683-3.063 22.81-9.19s9.19-13.73 9.19-22.81c0-9.079-3.063-16.683-9.19-22.81s-13.73-9.19-22.81-9.19h-213.334z" />
<glyph unicode="&#xe951;" glyph-name="expand_less-filled" d="M756.215 305.122c-15.287-14.699-39.595-14.225-54.298 1.062l-189.918 201.613-189.92-201.613c-14.699-15.287-39.008-15.761-54.295-1.062s-15.764 39.006-1.065 54.293l217.602 230.401c7.236 7.529 17.233 11.785 27.678 11.785s20.442-4.255 27.678-11.785l217.6-230.401c14.703-15.287 14.225-39.595-1.062-54.293z" />
<glyph unicode="&#xe952;" glyph-name="expand_less-outlined" d="M756.215 305.122c-15.287-14.699-39.595-14.225-54.298 1.062l-189.918 201.613-189.92-201.613c-14.699-15.287-39.008-15.761-54.295-1.062s-15.764 39.006-1.065 54.293l217.602 230.401c7.236 7.529 17.233 11.785 27.678 11.785s20.442-4.255 27.678-11.785l217.6-230.401c14.703-15.287 14.225-39.595-1.062-54.293z" />
<glyph unicode="&#xe953;" glyph-name="expand_more-filled" d="M267.764 590.879c15.287 14.7 39.596 14.223 54.295-1.065l189.92-201.612 189.922 201.612c14.699 15.287 39.006 15.764 54.293 1.065s15.765-39.008 1.067-54.295l-217.6-230.399c-7.241-7.531-17.237-11.785-27.682-11.785s-20.442 4.254-27.678 11.785l-217.602 230.399c-14.699 15.287-14.223 39.596 1.065 54.295z" />
<glyph unicode="&#xe954;" glyph-name="expand_more-outlined" d="M267.764 590.879c15.287 14.7 39.596 14.223 54.295-1.065l189.92-201.612 189.922 201.612c14.699 15.287 39.006 15.764 54.293 1.065s15.765-39.008 1.067-54.295l-217.6-230.399c-7.241-7.531-17.237-11.785-27.682-11.785s-20.442 4.254-27.678 11.785l-217.602 230.399c-14.699 15.287-14.223 39.596 1.065 54.295z" />
<glyph unicode="&#xe955;" glyph-name="fence-filled" d="M246.548 106.667c-11.63 0-21.378 3.934-29.245 11.802s-11.8 17.613-11.8 29.244v140.604h-34.074c-9.654 0-17.741 3.264-24.262 9.796s-9.781 14.622-9.781 24.277c0 9.655 3.264 17.741 9.792 24.26 6.528 6.524 14.617 9.783 24.266 9.783h34.059v113.532h-34.074c-9.654 0-17.741 3.264-24.262 9.796s-9.781 14.622-9.781 24.277c0 9.655 3.264 17.741 9.792 24.26 6.528 6.522 14.617 9.782 24.266 9.782h34.059v125.67c0 5.347 0.989 10.526 2.969 15.538s5.067 9.616 9.263 13.811l83.92 83.919c8.209 8.209 17.786 12.314 28.731 12.314s20.522-4.105 28.731-12.314l62.093-62.093 62.093 62.093c8.23 8.209 18.001 12.314 29.316 12.314 11.311 0 21.073-4.105 29.282-12.314l62.093-62.093 60.958 62.093c8.23 8.209 18.001 12.314 29.316 12.314 11.311 0 21.073-4.105 29.282-12.314l83.921-83.919c4.194-4.195 7.283-8.799 9.263-13.811s2.965-10.191 2.965-15.538v-125.67h33.028c9.596 0 17.655-3.265 24.175-9.795 6.519-6.532 9.779-14.622 9.779-24.277s-3.247-17.741-9.749-24.265c-6.498-6.519-14.554-9.779-24.162-9.779h-33.071v-113.532h33.028c9.596 0 17.655-3.268 24.175-9.796 6.519-6.532 9.779-14.622 9.779-24.277s-3.247-17.741-9.749-24.265c-6.498-6.519-14.554-9.779-24.162-9.779h-33.071v-140.604c0-11.631-3.93-21.376-11.797-29.244s-17.617-11.802-29.244-11.802h-532.111zM273.619 538.081h113.533v114.929l-56.767 56.766-56.766-56.766v-114.929zM455.266 538.081h113.536v114.929l-56.768 56.766-56.768-56.766v-114.929zM638.050 538.081h112.401v114.929l-56.768 56.766-55.633-56.068v-115.628zM273.619 356.433h113.533v113.532h-113.533v-113.532zM455.266 356.433h113.536v113.532h-113.536v-113.532zM638.050 356.433h112.401v113.532h-112.401v-113.532zM273.619 174.784h113.533v113.532h-113.533v-113.532zM455.266 174.784h113.536v113.532h-113.536v-113.532zM638.050 174.784h112.401v113.532h-112.401v-113.532z" />
<glyph unicode="&#xe956;" glyph-name="fence-outlined" d="M246.548 106.667c-11.63 0-21.378 3.934-29.245 11.802s-11.8 17.613-11.8 29.244v140.604h-34.074c-9.654 0-17.741 3.264-24.262 9.796s-9.781 14.622-9.781 24.277c0 9.655 3.264 17.741 9.792 24.26 6.528 6.524 14.617 9.783 24.266 9.783h34.059v113.532h-34.074c-9.654 0-17.741 3.264-24.262 9.796s-9.781 14.622-9.781 24.277c0 9.655 3.264 17.741 9.792 24.26 6.528 6.522 14.617 9.782 24.266 9.782h34.059v125.67c0 5.347 0.989 10.526 2.969 15.538s5.067 9.616 9.263 13.811l83.92 83.919c8.209 8.209 17.786 12.314 28.731 12.314s20.522-4.105 28.731-12.314l62.093-62.093 62.093 62.093c8.23 8.209 18.001 12.314 29.316 12.314 11.311 0 21.073-4.105 29.282-12.314l62.093-62.093 60.958 62.093c8.23 8.209 18.001 12.314 29.316 12.314 11.311 0 21.073-4.105 29.282-12.314l83.921-83.919c4.194-4.195 7.283-8.799 9.263-13.811s2.965-10.191 2.965-15.538v-125.67h33.028c9.596 0 17.655-3.265 24.175-9.795 6.519-6.532 9.779-14.622 9.779-24.277s-3.247-17.741-9.749-24.265c-6.498-6.519-14.554-9.779-24.162-9.779h-33.071v-113.532h33.028c9.596 0 17.655-3.268 24.175-9.796 6.519-6.532 9.779-14.622 9.779-24.277s-3.247-17.741-9.749-24.265c-6.498-6.519-14.554-9.779-24.162-9.779h-33.071v-140.604c0-11.631-3.93-21.376-11.797-29.244s-17.617-11.802-29.244-11.802h-532.111zM273.619 538.081h113.533v114.929l-56.767 56.766-56.766-56.766v-114.929zM455.266 538.081h113.536v114.929l-56.768 56.766-56.768-56.766v-114.929zM638.050 538.081h112.401v114.929l-56.768 56.766-55.633-56.068v-115.628zM273.619 356.433h113.533v113.532h-113.533v-113.532zM455.266 356.433h113.536v113.532h-113.536v-113.532zM638.050 356.433h112.401v113.532h-112.401v-113.532zM273.619 174.784h113.533v113.532h-113.533v-113.532zM455.266 174.784h113.536v113.532h-113.536v-113.532zM638.050 174.784h112.401v113.532h-112.401v-113.532z" />
<glyph unicode="&#xe957;" glyph-name="filter_alt-filled" d="M151.106 845.301c113.882 19.312 230.895 29.365 350.232 29.365 119.33 0 236.343-10.053 350.225-29.364 38.498-6.529 65.771-40.044 65.771-78.327v-44.544c0-33.948-13.487-66.505-37.491-90.51l-263.765-263.764c-12.002-12.002-18.743-28.284-18.743-45.257v-124.902c0-48.482-27.392-92.804-70.758-114.487l-74.931-37.466c-9.92-4.962-21.7-4.429-31.134 1.399-9.434 5.833-15.177 16.132-15.177 27.221v248.235c0 16.973-6.743 33.254-18.745 45.257l-263.764 263.764c-24.005 24.005-37.49 56.562-37.49 90.51v44.543c0 38.283 27.271 71.798 65.772 78.327z" />
<glyph unicode="&#xe958;" glyph-name="filter_alt-outlined" d="M161.772 834.635c113.882 19.312 230.895 29.365 350.232 29.365 119.33 0 236.343-10.053 350.225-29.364 38.498-6.529 65.771-40.044 65.771-78.327v-44.544c0-33.948-13.487-66.505-37.491-90.51l-231.765-231.764c-12.002-12.002-18.743-28.284-18.743-45.257v-124.902c0-48.482-27.392-92.804-70.758-114.487l-138.931-69.466c-9.919-4.962-21.7-4.429-31.134 1.399-9.434 5.833-15.177 16.132-15.177 27.221v280.235c0 16.973-6.743 33.254-18.745 45.257l-231.764 231.764c-24.005 24.005-37.49 56.562-37.49 90.51v44.543c0 38.283 27.271 71.798 65.772 78.327zM512.004 800c-115.737 0-229.17-9.749-339.532-28.464-6.969-1.182-12.473-7.391-12.473-15.228v-44.543c0-16.974 6.743-33.252 18.745-45.255l231.764-231.766c24.003-24.004 37.49-56.559 37.49-90.509v-228.459l92.621 46.31c21.683 10.842 35.379 33.003 35.379 57.246v124.902c0 33.95 13.487 66.505 37.491 90.509l231.765 231.766c12.002 12.003 18.743 28.281 18.743 45.255v44.544c0 7.837-5.504 14.046-12.471 15.228-110.362 18.714-223.791 28.463-339.524 28.463z" />
<glyph unicode="&#xe959;" glyph-name="flag-filled" d="M128 864c17.673 0 32-14.327 32-32v-23.015l78.429 19.607c96.339 24.084 198.115 12.912 286.934-31.498l4.599-2.298c73.651-36.826 157.884-46.665 238.037-27.805l132.676 31.218c10.108 2.378 20.745-0.295 28.523-7.172 7.782-6.876 11.742-17.1 10.624-27.423-7.812-72.122-11.823-145.394-11.823-219.615 0-74.837 4.075-148.715 12.019-221.419 1.754-16.068-8.751-30.921-24.482-34.624l-132.877-31.262c-94.729-22.293-194.278-10.662-281.323 32.858l-4.595 2.3c-75.154 37.577-161.273 47.031-242.791 26.65l-93.952-23.488v-231.014c0-17.673-14.327-32-32-32s-32 14.327-32 32v768c0 17.673 14.327 32 32 32z" />
<glyph unicode="&#xe95a;" glyph-name="flag-outlined" d="M128 864c17.673 0 32-14.327 32-32v-23.015l78.429 19.607c96.339 24.084 198.115 12.912 286.934-31.498l4.599-2.298c73.651-36.826 157.884-46.665 238.042-27.804l132.672 31.217c10.108 2.378 20.745-0.295 28.523-7.172 7.782-6.876 11.742-17.1 10.624-27.423-7.812-72.122-11.823-145.394-11.823-219.615 0-74.837 4.075-148.715 12.019-221.419 1.754-16.068-8.751-30.921-24.482-34.624l-132.877-31.262c-94.729-22.293-194.278-10.662-281.323 32.858l-4.595 2.3c-75.154 37.577-161.273 47.031-242.791 26.65l-93.952-23.488v-231.014c0-17.673-14.327-32-32-32s-32 14.327-32 32v768c0 17.673 14.327 32 32 32zM160 360.986l78.429 19.605c96.339 24.085 198.115 12.915 286.934-31.497l4.599-2.3c73.651-36.826 157.884-46.665 238.042-27.802l105.506 24.823c-6.293 65.89-9.51 132.663-9.51 200.183 0 61.204 2.645 121.798 7.825 181.673l-89.165-20.98c-94.729-22.289-194.278-10.662-281.323 32.86l-4.595 2.298c-75.154 37.578-161.273 47.031-242.791 26.652l-93.952-23.488v-382.030z" />
<glyph unicode="&#xe95b;" glyph-name="format_quote-filled" d="M289.31 254.767l72.945 126.362c-2.462-1.365-5.334-2.325-8.617-2.871s-6.564-0.819-9.847-0.819c-43.377 0-80.205 15.275-110.481 45.824s-45.415 67.238-45.415 110.071c0 43.377 15.139 80.204 45.415 110.48s67.104 45.416 110.481 45.416c42.831 0 79.52-15.139 110.070-45.416s45.828-67.103 45.828-110.48c0-14.989-1.822-28.937-5.457-41.847-3.639-12.907-8.96-25.216-15.962-36.924l-133.825-231.791c-2.735-4.762-6.481-8.619-11.241-11.571s-10.092-4.429-15.999-4.429c-12.253 0-21.443 5.333-27.569 16-6.126 10.662-6.236 21.329-0.329 31.996zM668.386 254.767l72.947 126.362c-2.462-1.365-5.333-2.325-8.619-2.871-3.281-0.546-6.562-0.819-9.847-0.819-43.375 0-80.201 15.275-110.481 45.824-30.276 30.549-45.414 67.238-45.414 110.071 0 43.65 15.138 80.546 45.414 110.686 30.281 30.14 67.106 45.21 110.481 45.21 42.833 0 79.522-15.139 110.071-45.416 30.554-30.276 45.828-67.103 45.828-110.48 0-14.989-1.822-28.937-5.457-41.847-3.639-12.907-8.96-25.216-15.962-36.924l-133.824-231.791c-2.735-4.762-6.481-8.619-11.238-11.571-4.762-2.953-10.095-4.429-16-4.429-12.254 0-21.444 5.333-27.571 16-6.127 10.662-6.234 21.329-0.329 31.996z" />
<glyph unicode="&#xe95c;" glyph-name="format_quote-outlined" d="M289.31 254.767l72.945 126.362c-2.462-1.365-5.334-2.325-8.617-2.871s-6.564-0.819-9.847-0.819c-43.377 0-80.205 15.262-110.481 45.794-30.277 30.528-45.415 67.23-45.415 110.101 0 43.377 15.139 80.204 45.415 110.48s67.104 45.416 110.481 45.416c42.871 0 79.572-15.139 110.1-45.416 30.532-30.276 45.798-67.055 45.798-110.338 0-15.084-1.822-29.079-5.457-41.99-3.639-12.907-8.96-25.216-15.962-36.924l-133.825-231.791c-2.667-4.8-6.402-8.67-11.204-11.601-4.802-2.935-10.138-4.399-16.006-4.399-12.272 0-21.472 5.333-27.598 16-6.126 10.662-6.236 21.329-0.329 31.996zM668.386 254.767l72.947 126.362c-2.462-1.365-5.333-2.325-8.619-2.871-3.281-0.546-6.562-0.819-9.847-0.819-43.375 0-80.201 15.262-110.481 45.794-30.276 30.528-45.414 67.23-45.414 110.101 0 43.65 15.138 80.546 45.414 110.686 30.281 30.14 67.106 45.21 110.481 45.21 42.871 0 79.573-15.139 110.106-45.416 30.528-30.276 45.794-67.055 45.794-110.338 0-15.084-1.822-29.079-5.457-41.99-3.639-12.907-8.96-25.216-15.962-36.924l-133.824-231.791c-2.667-4.8-6.404-8.67-11.204-11.601-4.804-2.935-10.138-4.399-16.009-4.399-12.271 0-21.47 5.333-27.597 16-6.127 10.662-6.234 21.329-0.329 31.996zM343.792 454.562c21.881 0 40.48 7.659 55.795 22.976 15.317 15.313 22.975 33.911 22.975 55.795 0 21.88-7.658 40.479-22.975 55.794-15.316 15.317-33.914 22.975-55.795 22.975s-40.48-7.658-55.796-22.975c-15.316-15.316-22.974-33.914-22.974-55.794 0-21.884 7.658-40.482 22.974-55.795 15.316-15.317 33.915-22.976 55.796-22.976zM722.867 454.562c21.884 0 40.482 7.659 55.799 22.976 15.313 15.313 22.972 33.911 22.972 55.795 0 21.88-7.659 40.479-22.972 55.794-15.317 15.317-33.916 22.975-55.799 22.975-21.879 0-40.478-7.658-55.795-22.975s-22.972-33.914-22.972-55.794c0-21.884 7.654-40.482 22.972-55.795 15.317-15.317 33.916-22.976 55.795-22.976z" />
<glyph unicode="&#xe95d;" glyph-name="format_size-outlined" d="M344.224 122.991v345.882h179.497c20.962 0 37.952 16.994 37.952 37.952 0 20.962-16.99 37.952-37.952 37.952h-443.103c-20.96 0-37.951-16.989-37.951-37.952 0-20.958 16.991-37.952 37.951-37.952h178.473v-345.882c0-23.509 19.058-42.564 42.567-42.564s42.567 19.055 42.567 42.564zM763.883 147.755v565.676h179.499c20.962 0 37.952 16.992 37.952 37.951s-16.99 37.951-37.952 37.951h-443.102c-20.962 0-37.952-16.991-37.952-37.951s16.99-37.951 37.952-37.951h178.47v-565.676c0-23.509 19.059-42.569 42.569-42.569s42.564 19.059 42.564 42.569z" />
<glyph unicode="&#xe95e;" glyph-name="fullscreen_exit-filled" d="M178.998 781.002c11.108 11.108 29.118 11.108 40.227 0l150.554-150.554v101.996c0 15.709 12.735 28.444 28.444 28.444s28.445-12.735 28.445-28.444v-170.667c0-15.709-12.735-28.445-28.445-28.445h-170.667c-15.709 0-28.444 12.735-28.444 28.445s12.735 28.444 28.444 28.444h101.996l-150.554 150.554c-11.108 11.108-11.108 29.118 0 40.227zM845.001 781.002c11.11-11.108 11.11-29.118 0-40.227l-150.554-150.554h101.999c15.71 0 28.442-12.735 28.442-28.444s-12.732-28.445-28.442-28.445h-170.667c-15.71 0-28.446 12.735-28.446 28.445v170.667c0 15.709 12.736 28.444 28.446 28.444s28.442-12.735 28.442-28.444v-101.996l150.554 150.554c11.11 11.108 29.12 11.108 40.226 0zM199.111 334.221c0 15.71 12.735 28.446 28.444 28.446h170.667c15.709 0 28.445-12.736 28.445-28.446v-170.667c0-15.71-12.735-28.442-28.445-28.442s-28.444 12.732-28.444 28.442v101.999l-150.554-150.554c-11.108-11.11-29.118-11.11-40.227 0-11.108 11.106-11.108 29.116 0 40.226l150.554 150.554h-101.996c-15.709 0-28.444 12.732-28.444 28.442zM597.333 334.221c0 15.71 12.736 28.446 28.446 28.446h170.667c15.71 0 28.442-12.736 28.442-28.446s-12.732-28.442-28.442-28.442h-101.999l150.554-150.554c11.11-11.11 11.11-29.12 0-40.226-11.106-11.11-29.116-11.11-40.226 0l-150.554 150.554v-101.999c0-15.71-12.732-28.442-28.442-28.442s-28.446 12.732-28.446 28.442v170.667z" />
<glyph unicode="&#xe95f;" glyph-name="fullscreen_exit-outlined" d="M178.998 781.002c11.108 11.108 29.118 11.108 40.227 0l150.554-150.554v101.996c0 15.709 12.735 28.444 28.444 28.444s28.445-12.735 28.445-28.444v-170.667c0-15.709-12.735-28.445-28.445-28.445h-170.667c-15.709 0-28.444 12.735-28.444 28.445s12.735 28.444 28.444 28.444h101.996l-150.554 150.554c-11.108 11.108-11.108 29.118 0 40.227zM845.001 781.002c11.11-11.108 11.11-29.118 0-40.227l-150.554-150.554h101.999c15.71 0 28.442-12.735 28.442-28.444s-12.732-28.445-28.442-28.445h-170.667c-15.71 0-28.446 12.735-28.446 28.445v170.667c0 15.709 12.736 28.444 28.446 28.444s28.442-12.735 28.442-28.444v-101.996l150.554 150.554c11.11 11.108 29.12 11.108 40.226 0zM199.111 334.221c0 15.71 12.735 28.446 28.444 28.446h170.667c15.709 0 28.445-12.736 28.445-28.446v-170.667c0-15.71-12.735-28.442-28.445-28.442s-28.444 12.732-28.444 28.442v101.999l-150.554-150.554c-11.108-11.11-29.118-11.11-40.227 0-11.108 11.106-11.108 29.116 0 40.226l150.554 150.554h-101.996c-15.709 0-28.444 12.732-28.444 28.442zM597.333 334.221c0 15.71 12.736 28.446 28.446 28.446h170.667c15.71 0 28.442-12.736 28.442-28.446s-12.732-28.442-28.442-28.442h-101.999l150.554-150.554c11.11-11.11 11.11-29.12 0-40.226-11.106-11.11-29.116-11.11-40.226 0l-150.554 150.554v-101.999c0-15.71-12.732-28.442-28.442-28.442s-28.446 12.732-28.446 28.442v170.667z" />
<glyph unicode="&#xe960;" glyph-name="fullscreen-filled" d="M625.779 760.889c0 15.709 12.732 28.445 28.442 28.445h170.667c15.71 0 28.446-12.735 28.446-28.445v-170.667c0-15.709-12.736-28.444-28.446-28.444s-28.442 12.735-28.442 28.444v101.996l-150.554-150.554c-11.11-11.109-29.12-11.109-40.226 0-11.11 11.108-11.11 29.118 0 40.227l150.554 150.554h-101.999c-15.71 0-28.442 12.735-28.442 28.444zM170.667 760.889c0 15.709 12.735 28.445 28.445 28.445h170.667c15.709 0 28.444-12.735 28.444-28.445s-12.735-28.444-28.444-28.444h-101.996l150.554-150.554c11.109-11.108 11.109-29.118 0-40.227s-29.118-11.109-40.227 0l-150.554 150.554v-101.996c0-15.709-12.735-28.444-28.444-28.444s-28.445 12.735-28.445 28.444v170.667zM418.336 354.334c11.109-11.106 11.109-29.116 0-40.226l-150.554-150.554h101.996c15.709 0 28.444-12.732 28.444-28.442s-12.735-28.446-28.444-28.446h-170.667c-15.709 0-28.445 12.736-28.445 28.446v170.667c0 15.71 12.735 28.442 28.445 28.442s28.444-12.732 28.444-28.442v-101.999l150.554 150.554c11.108 11.11 29.118 11.11 40.227 0zM605.666 354.334c11.106 11.11 29.116 11.11 40.226 0l150.554-150.554v101.999c0 15.71 12.732 28.442 28.442 28.442s28.446-12.732 28.446-28.442v-170.667c0-15.71-12.736-28.446-28.446-28.446h-170.667c-15.71 0-28.442 12.736-28.442 28.446s12.732 28.442 28.442 28.442h101.999l-150.554 150.554c-11.11 11.11-11.11 29.12 0 40.226z" />
<glyph unicode="&#xe961;" glyph-name="fullscreen-outlined" d="M625.779 760.889c0 15.709 12.732 28.445 28.442 28.445h170.667c15.71 0 28.446-12.735 28.446-28.445v-170.667c0-15.709-12.736-28.444-28.446-28.444s-28.442 12.735-28.442 28.444v101.996l-150.554-150.554c-11.11-11.109-29.12-11.109-40.226 0-11.11 11.108-11.11 29.118 0 40.227l150.554 150.554h-101.999c-15.71 0-28.442 12.735-28.442 28.444zM170.667 760.889c0 15.709 12.735 28.445 28.445 28.445h170.667c15.709 0 28.444-12.735 28.444-28.445s-12.735-28.444-28.444-28.444h-101.996l150.554-150.554c11.109-11.108 11.109-29.118 0-40.227s-29.118-11.109-40.227 0l-150.554 150.554v-101.996c0-15.709-12.735-28.444-28.444-28.444s-28.445 12.735-28.445 28.444v170.667zM418.336 354.334c11.109-11.106 11.109-29.116 0-40.226l-150.554-150.554h101.996c15.709 0 28.444-12.732 28.444-28.442s-12.735-28.446-28.444-28.446h-170.667c-15.709 0-28.445 12.736-28.445 28.446v170.667c0 15.71 12.735 28.442 28.445 28.442s28.444-12.732 28.444-28.442v-101.999l150.554 150.554c11.108 11.11 29.118 11.11 40.227 0zM605.666 354.334c11.106 11.11 29.116 11.11 40.226 0l150.554-150.554v101.999c0 15.71 12.732 28.442 28.442 28.442s28.446-12.732 28.446-28.442v-170.667c0-15.71-12.736-28.446-28.446-28.446h-170.667c-15.71 0-28.442 12.736-28.442 28.446s12.732 28.442 28.442 28.442h101.999l-150.554 150.554c-11.11 11.11-11.11 29.12 0 40.226z" />
</font>
</defs>
</svg>
